<?xml version="1.0" encoding="utf-8"?>
<!-- Generator: Adobe Illustrator 16.0.0, SVG Export Plug-In . SVG Version: 6.00 Build 0)  -->
<!DOCTYPE svg PUBLIC "-//W3C//DTD SVG 1.1//EN" "http://www.w3.org/Graphics/SVG/1.1/DTD/svg11.dtd">
<svg version="1.1" id="Layer_1" xmlns="http://www.w3.org/2000/svg" xmlns:xlink="http://www.w3.org/1999/xlink" x="0px" y="0px"
	 width="1417.32px" height="1417.32px" viewBox="0 0 1417.32 1417.32" enable-background="new 0 0 1417.32 1417.32"
	 xml:space="preserve">
<g>
	
		<radialGradient id="SVGID_1_" cx="82.0059" cy="-100.9106" r="683.0535" gradientTransform="matrix(1 0 0 1 625.3203 805)" gradientUnits="userSpaceOnUse">
		<stop  offset="0.7279" style="stop-color:#FFFFFF"/>
		<stop  offset="1" style="stop-color:#0CB2CC"/>
	</radialGradient>
	<rect x="23.1" y="22.21" fill="url(#SVGID_1_)" width="1368.452" height="1363.759"/>
	<path d="M708.112,1405.355c-36.605,0-73.21,0.002-109.815,0c-48.623-0.005-97.247-0.023-145.87-0.015
		c-46.002,0.01-92.003,0.062-138.004,0.062c-56.136,0.005-112.271-0.029-168.407-0.034c-34.169-0.002-68.337,0.021-102.506,0.031
		c-7.135,0.002-14.268,0.03-21.401-0.011c-1.681-0.012-3.385-0.122-5.035-0.428c-2.858-0.529-3.78-2.073-4.217-5.033
		c-1.592-10.801-0.872-21.666-1.063-32.502c-0.189-10.694-0.144-21.396-0.15-32.092c-0.02-27.216-0.043-54.429-0.009-81.643
		c0.038-29.469,0.181-58.937,0.205-88.405c0.022-28.9-0.064-57.804-0.076-86.704c-0.011-28.897,0.033-57.794,0.014-86.692
		c-0.018-25.147-0.131-50.295-0.124-75.44c0.007-22.898,0.16-45.797,0.176-68.694c0.021-29.089-0.039-58.175-0.05-87.265
		c-0.011-33.597,0.006-67.188-0.016-100.782c-0.013-19.896-0.103-39.792-0.113-59.689c-0.01-19.14,0.045-38.281,0.055-57.423
		c0.017-27.399,0.012-54.801,0.028-82.2c0.015-23.649,0.065-47.299,0.064-70.949c-0.001-19.328-0.079-38.657-0.082-57.985
		c-0.006-26.839-0.021-53.677,0.054-80.513c0.088-31.338,0.218-62.677,0.427-94.014c0.165-24.588,0.449-49.177,0.731-73.766
		c0.176-15.386,0.399-30.771,0.707-46.153c0.087-4.344-0.04-8.624-1.39-12.783c-0.774-2.386-0.773-4.73-0.251-7.184
		c0.887-4.17,2.459-5.759,6.733-6.139c2.616-0.233,5.244-0.395,7.869-0.433c27.397-0.398,54.794-0.894,82.193-1.101
		c24.401-0.184,48.803-0.053,73.205-0.034c18.77,0.014,37.54,0.1,56.311,0.097c24.399-0.003,48.797-0.083,73.197-0.095
		c27.779-0.014,55.559,0.016,83.338,0.02c18.771,0.003,37.539-0.009,56.31,0c18.579,0.007,37.157,0.049,55.735,0.043
		c23.836-0.007,47.673-0.062,71.51-0.066c18.957-0.003,37.916,0.05,56.873,0.059c16.893,0.007,33.781-0.014,50.671-0.025
		c24.588-0.015,49.175-0.037,73.763-0.046c25.716-0.011,51.432-0.02,77.146-0.011c37.911,0.013,75.822,0.055,113.732,0.058
		c19.333,0.003,38.668-0.071,58-0.071c29.279,0,58.56,0.055,87.839,0.05c28.719-0.003,57.438-0.071,86.154-0.07
		c14.453,0,28.908,0.117,43.359,0.132c15.768,0.017,31.53-0.032,47.295-0.036c26.653-0.007,53.306-0.012,79.957,0.003
		c12.575,0.007,25.148,0.147,37.725,0.036c3.459-0.029,6.636,1.005,9.93,1.629c1.492,0.281,2.312,1.39,2.59,2.673
		c0.396,1.82,0.683,3.724,0.609,5.576c-0.821,20.621-0.056,41.237,0.096,61.854c0.202,27.209,0.541,54.416,0.659,81.626
		c0.179,41.115,0.263,82.23,0.306,123.346c0.038,39.05-0.041,78.099-0.041,117.149c0,40.551,0.047,81.101,0.052,121.648
		c0.002,28.536-0.039,57.072-0.046,85.61c-0.01,35.48,0.009,70.963,0,106.444c-0.01,34.732-0.054,69.462-0.056,104.193
		c-0.003,43.742,0.054,87.483,0.026,131.226c-0.021,40.735-0.146,81.472-0.171,122.206c-0.027,46.559,0.021,93.113,0.002,139.67
		c-0.018,34.728-0.029,69.457-0.159,104.185c-0.077,21.017-0.41,42.032-0.536,63.051c-0.021,3.362,0.284,6.746,0.71,10.086
		c0.439,3.428-0.021,6.667-0.9,9.97c-0.64,2.391-2.114,3.457-4.326,3.741c-1.664,0.216-3.36,0.294-5.041,0.289
		c-21.395-0.076-42.789-0.225-64.185-0.263c-29.284-0.053-58.567-0.026-87.854-0.026c-23.09,0-46.183,0.018-69.273,0.015
		c-29.095,0-58.193-0.02-87.288-0.021c-23.653,0-47.308,0.018-70.961,0.02c-41.676,0.005-83.351,0.014-125.028,0.005
		c-47.115-0.007-94.236-0.035-141.354-0.051c-13.519-0.005-27.032,0-40.55,0C708.112,1405.299,708.112,1405.329,708.112,1405.355z
		 M37.06,702.604c-0.098-0.002-0.195-0.002-0.291-0.002c-0.147,6.748-0.271,13.5-0.444,20.247
		c-0.221,8.621-0.016,17.231,0.662,25.829c0.811,10.285,1.609,20.573,2.467,30.856c1.406,16.839,3.944,33.521,7.166,50.097
		c2.074,10.674,4.472,21.282,6.59,31.946c2.961,14.899,6.014,29.776,10.245,44.386c3.494,12.062,7.079,24.105,10.144,36.277
		c3.037,12.062,7.308,23.645,12.258,35.007c0.495,1.14,1.271,2.435,2.282,2.996c1.316,0.73,1.822,1.633,2.22,2.962
		c1.719,5.741,3.188,11.587,6.139,16.88c1.18,2.113,2.785,4.032,3.697,6.246c3.506,8.516,7.667,16.7,12.08,24.768
		c4.052,7.4,8.101,14.799,12.182,22.184c3.085,5.581,6.091,11.211,9.367,16.678c3.758,6.274,7.75,12.408,11.688,18.569
		c2.223,3.478,4.413,6.986,6.845,10.316c5.749,7.87,10.846,16.204,17.305,23.576c6.413,7.321,11.479,15.775,18.509,22.586
		c6.906,6.69,12.618,14.35,18.485,21.904c4.486,5.775,8.895,11.676,13.963,16.917c10.563,10.923,21.492,21.491,32.366,32.108
		c8.189,7.994,16.496,15.875,24.807,23.744c4.896,4.639,9.836,9.232,14.897,13.689c1.957,1.724,4.304,2.998,6.457,4.5
		c1.383,0.962,2.776,1.916,4.101,2.957c3.69,2.895,7.222,6.008,11.04,8.717c9.331,6.627,18.777,13.089,28.198,19.587
		c2.312,1.595,4.62,3.238,7.091,4.56c8.291,4.438,16.116,9.591,23.74,15.071c7.353,5.285,15.245,9.635,23.817,12.499
		c7.637,2.549,15.466,4.525,23.215,6.732c5.57,1.586,11.299,2.501,16.808,4.413c9.015,3.124,18.173,5.831,27.218,8.87
		c4.964,1.669,9.796,3.719,14.728,5.482c4.225,1.514,8.64,2.561,12.735,4.348c10.472,4.57,21.218,8.399,31.966,12.227
		c5.117,1.82,10.317,3.42,15.531,4.939c7.237,2.11,14.689,3.008,22.182,3.62c5.051,0.413,10.102,0.832,15.143,1.35
		c13.619,1.397,27.235,2.85,40.854,4.277c3.169,0.335,6.33,0.751,9.506,0.988c9.169,0.687,18.345,1.253,27.511,1.952
		c8.068,0.618,16.129,0.579,24.186-0.097c5.785-0.484,11.552-1.318,17.343-1.529c14.246-0.519,28.473-1.237,42.675-2.539
		c9.149-0.837,18.344-1.205,27.517-1.802c7.856-0.509,15.716-0.995,23.569-1.589c2.229-0.17,4.422-0.806,6.651-1.006
		c7.46-0.671,14.939-1.157,22.235-3.052c1.083-0.281,2.223-0.347,3.339-0.49c6.31-0.816,12.64-1.412,18.792-3.246
		c3.573-1.063,7.303-1.598,10.952-2.41c6.203-1.375,12.385-2.854,18.604-4.158c8.796-1.846,16.995-5.704,25.783-7.561
		c0.366-0.076,0.716-0.226,1.062-0.371c4.659-1.963,9.383-3.794,13.965-5.924c9.181-4.272,18.879-7.057,28.449-10.229
		c6.212-2.059,12.497-4,18.493-6.593c8.594-3.721,17.188-7.377,26.032-10.476c4.226-1.48,8.311-3.401,12.357-5.327
		c4.553-2.166,8.89-4.804,13.502-6.814c8.953-3.907,17.508-8.5,25.7-13.814c6.908-4.484,13.811-8.99,20.877-13.22
		c6.258-3.745,12.8-6.964,18.746-11.293c8.782-6.396,18.137-12.026,26.781-18.592c8.646-6.563,16.812-13.773,25.027-20.888
		c6.674-5.777,12.742-12.162,18.104-19.213c1.926-2.526,4.039-4.947,6.33-7.144c4.738-4.546,9.572-8.996,14.516-13.32
		c6.633-5.808,13.254-11.608,19.292-18.058c4.991-5.332,10.131-10.53,15.305-15.689c4.931-4.916,9.449-10.146,13.327-15.944
		c1.875-2.799,3.936-5.494,6.099-8.076c4.218-5.032,8.632-9.902,12.845-14.938c6.857-8.202,13.674-16.44,20.411-24.745
		c5.679-7,10.909-14.305,14.615-22.605c1.068-2.389,2.384-4.684,3.762-6.91c3.839-6.208,7.828-12.316,11.644-18.535
		c5.791-9.434,11.488-18.918,17.212-28.393c2.423-4.01,5.019-7.932,7.168-12.083c6.21-11.985,12.337-24.016,18.292-36.128
		c4.625-9.406,9.316-18.792,12.927-28.672c2.697-7.388,5.698-14.663,8.49-22.017c2.785-7.333,5.993-14.557,8.092-22.086
		c3.877-13.897,7.188-27.956,10.521-42.001c2.114-8.925,4.042-17.902,5.69-26.926c1.613-8.845,2.782-17.772,4.116-26.672
		c0.692-4.619,1.499-9.23,1.944-13.875c0.933-9.698,1.654-19.418,2.476-29.127c0.25-2.979,0.745-5.955,0.762-8.935
		c0.054-8.214,1.007-16.386,0.429-24.646c-0.548-7.835-0.183-15.733-0.241-23.603c-0.013-1.5-0.024-3.013-0.218-4.497
		c-0.967-7.427-1.979-14.85-3.009-22.27c-0.335-2.411-0.832-4.801-1.157-7.212c-0.823-6.133-1.561-12.273-2.396-18.403
		c-0.684-5.011-1.356-10.023-2.22-15.004c-0.992-5.728-2.274-11.403-3.27-17.13c-1.669-9.606-3.042-19.268-4.854-28.848
		c-1.289-6.807-1.813-13.756-3.867-20.424c-1.598-5.194-3.071-10.427-4.517-15.667c-3.935-14.283-7.604-28.644-11.787-42.853
		c-4.022-13.667-8.552-27.185-12.876-40.764c-0.965-3.035-1.926-6.077-3.017-9.067c-1.28-3.523-2.763-6.975-4.052-10.496
		c-4.462-12.188-9.832-23.922-17.05-34.756c-1.039-1.557-2.063-3.146-2.877-4.825c-1.96-4.046-3.867-8.122-5.662-12.245
		c-3.059-7.029-6.111-14.066-8.986-21.175c-2.532-6.259-4.541-12.763-9.523-17.689c-0.259-0.257-0.403-0.629-0.589-0.956
		c-4.252-7.501-8.961-14.703-14.229-21.536c-0.8-1.039-1.564-2.107-2.27-3.214c-5.733-9.023-11.416-18.087-19.117-25.643
		c-0.267-0.263-0.495-0.565-0.728-0.86c-5.078-6.498-9.948-13.172-15.289-19.447c-5.823-6.84-11.262-14.072-18.34-19.767
		c-0.713-0.576-1.264-1.356-1.883-2.048c-1.361-1.527-2.619-3.161-4.096-4.57c-6.778-6.471-13.559-12.938-20.451-19.287
		c-5.768-5.314-11.188-10.934-17.708-15.516c-12.726-8.943-24.854-18.729-37.394-27.945c-12.377-9.097-23.918-19.252-36.309-28.326
		c-10.281-7.53-20.277-15.467-30.798-22.646c-9.43-6.435-19.248-12.348-29.178-17.998c-9.444-5.371-19.25-10.107-28.905-15.108
		c-3.993-2.068-7.938-4.25-12.027-6.112c-9.896-4.504-19.851-8.875-29.807-13.246c-2.743-1.204-5.501-2.462-8.373-3.27
		c-8.995-2.528-17.245-7.145-26.423-9.203c-3.249-0.729-6.271-2.464-9.396-3.732c-16.51-6.693-33.102-13.109-50.216-18.17
		c-12.241-3.619-24.664-6.448-37.066-9.351c-5.068-1.185-10.455-0.95-15.608-1.86c-15.759-2.782-31.725-3.122-47.619-3.712
		c-11.621-0.432-23.189-1.668-34.827-1.769c-11.247-0.099-22.489-0.724-33.736-0.774c-12.548-0.057-25.086,0.47-37.611,1.27
		c-3.552,0.227-7.136,0.059-10.668,0.417c-8.205,0.833-16.386,1.893-24.58,2.83c-8.55,0.978-17.14,1.674-25.648,2.928
		c-14.094,2.079-28.29,3.469-42.286,6.215c-7.897,1.551-15.838,2.89-23.695,4.61c-4.744,1.039-9.357,2.658-14.043,3.962
		c-7.393,2.056-14.772,4.154-22.202,6.072c-10.159,2.622-20.347,5.132-30.543,7.612c-5.319,1.294-10.396,3.181-15.128,5.921
		c-7.801,4.517-16.083,7.97-24.364,11.476c-10.87,4.601-21.934,8.794-32.225,14.68c-3.418,1.954-6.843,3.905-10.355,5.681
		c-10.208,5.16-20.526,10.104-30.677,15.372c-10.834,5.622-20.953,12.369-30.418,20.1c-5.805,4.739-11.75,9.306-17.649,13.93
		c-3.099,2.43-6.339,4.69-9.33,7.243c-10.975,9.378-21.797,18.935-32.821,28.252c-9.192,7.768-17.364,16.541-25.669,25.194
		c-7.92,8.253-15.913,16.443-23.081,25.383c-2.345,2.925-4.854,5.727-7.058,8.753c-6.401,8.785-12.714,17.634-19.004,26.498
		c-4.765,6.716-9.603,13.366-13.707,20.55c-3.992,6.989-8.395,13.761-12.931,20.415c-4.642,6.807-9.569,13.425-13.633,20.602
		c-3.79,6.689-7.485,13.424-12.1,19.603c-0.67,0.896-1.213,1.899-1.735,2.895c-2.692,5.133-5.306,10.308-8.048,15.415
		c-4.167,7.757-8.504,15.422-12.594,23.217c-2.174,4.142-4.156,8.403-5.906,12.74c-1.771,4.389-4.618,8.103-6.941,12.145
		c-3.466,6.031-6.087,12.449-8.602,18.912c-1.631,4.189-3.077,8.462-4.878,12.578c-2.623,5.995-5.678,11.805-8.195,17.841
		c-1.868,4.479-3.188,9.19-4.726,13.805c-3.911,11.728-8.225,23.333-10.379,35.577c-0.355,2.025-1.066,3.985-1.579,5.985
		c-1.766,6.892-3.587,13.771-5.251,20.687c-1.094,4.548-1.702,9.226-2.983,13.713c-1.547,5.414-3.009,10.817-3.777,16.406
		c-0.917,6.682-1.666,13.406-3.005,20.006c-1.898,9.369-4,18.713-6.51,27.933c-2.637,9.687-3.631,19.561-3.895,29.479
		C36.792,675.938,37.06,689.274,37.06,702.604z M1390.197,832.306c-0.859,2.031-1.492,3.118-1.784,4.289
		c-1.126,4.53-2.125,9.097-3.202,13.64c-3.023,12.738-5.941,25.51-9.135,38.207c-2.652,10.547-6.756,20.604-10.904,30.636
		c-1.431,3.464-2.703,6.992-4.051,10.488c-2.958,7.68-5.668,15.469-8.951,23.008c-3.587,8.243-7.596,16.308-11.62,24.348
		c-3.604,7.208-7.51,14.267-11.228,21.417c-2.077,3.988-3.802,8.184-6.104,12.027c-6.94,11.585-14.056,23.063-21.164,34.545
		c-3.651,5.9-7.434,11.724-11.166,17.577c-2.92,4.578-5.778,9.198-8.802,13.713c-7.309,10.908-14.828,21.681-22.006,32.677
		c-4.936,7.562-10.156,14.877-16.153,21.62c-4.112,4.627-8.339,9.158-12.555,13.694c-8.3,8.934-16.388,18.088-25.013,26.699
		c-8.638,8.625-16.648,17.81-25.005,26.679c-4.5,4.776-9.077,9.495-13.843,14.005c-5.169,4.892-10.741,9.355-15.879,14.279
		c-6.921,6.636-14.355,12.646-21.847,18.601c-8.205,6.524-16.969,12.354-24.52,19.697c-0.397,0.39-0.892,0.686-1.35,1.014
		c-6.407,4.565-12.765,9.203-19.232,13.679c-9.407,6.51-19.017,12.688-29.127,18.096c-7.268,3.89-14.278,8.264-21.406,12.42
		c-1.458,0.852-2.88,1.776-4.396,2.511c-10.631,5.137-21.227,10.349-31.938,15.308c-11.222,5.194-22.439,10.416-33.872,15.11
		c-13.681,5.618-27.323,11.334-41.22,16.449c-10.396,3.822-20.992,6.937-31.582,10.092c-7.35,2.188-14.701,4.319-22.299,5.699
		c-8.65,1.572-17.135,4.038-25.714,6.025c-2.549,0.59-5.167,0.897-7.759,1.285c-3.899,0.58-7.828,0.979-11.7,1.695
		c-14.042,2.604-28.249,3.831-42.46,4.817c-21.339,1.48-42.707,2.529-64.063,3.775c-0.895,0.053-1.781,0.225-2.67,0.341
		c4.283,1.078,8.596,0.904,12.891,0.904c70.789,0.006,141.582-0.021,212.373-0.023c146.839-0.005,293.678,0,440.519,0
		c1.688,0,3.383,0.048,5.066-0.021c1.276-0.055,2.547-0.259,4.191-0.437c0.236-3.541,0.649-6.884,0.651-10.23
		c0.034-90.884,0.034-181.765,0-272.647c-0.002-3.17-0.471-6.336-0.624-9.506c-0.083-1.684-0.009-3.376,0.096-5.058
		c0.135-2.233,0.523-4.466,0.531-6.698c0.05-14.645,0.067-29.292-0.005-43.938c-0.018-3.358-0.456-6.715-0.615-10.074
		c-0.097-2.062-0.116-4.132-0.021-6.189c0.163-3.545,0.61-7.085,0.638-10.631c0.085-11.268,0.068-22.533,0.002-33.8
		c-0.017-2.798-0.438-5.59-0.558-8.39c-0.104-2.433-0.136-4.878-0.037-7.312c0.116-2.797,0.593-5.587,0.595-8.379
		c0.041-39.995,0.026-79.99,0.026-119.987C1390.197,837.805,1390.197,835.554,1390.197,832.306z M1390.197,591.429
		c0-2.068,0-4.082,0-6.093c0-43.751,0.007-87.502-0.012-131.251c-0.002-3.74,0.181-7.474-0.604-11.207
		c-0.413-1.978-0.393-4.176-0.002-6.165c0.768-3.921,0.597-7.846,0.608-11.775c0.027-10.516,0.062-21.031-0.022-31.547
		c-0.024-3.355-0.466-6.708-0.624-10.065c-0.097-2.06-0.094-4.13,0-6.189c0.163-3.547,0.604-7.091,0.624-10.636
		c0.078-12.956,0.062-25.913,0.017-38.869c-0.019-4.111,0.323-8.239-0.632-12.332c-0.327-1.412-0.02-2.986,0.072-4.479
		c0.16-2.61,0.543-5.218,0.548-7.825c0.046-21.969,0.025-43.939,0.025-65.908c0-68.347,0-136.696,0-205.045
		c0-1.502,0.055-3.008-0.037-4.505c-0.175-2.896-0.936-3.661-3.729-3.782c-1.688-0.073-3.379-0.032-5.07-0.032
		c-198.659-0.001-397.322-0.001-595.981,0.001c-2.065,0-4.133-0.011-6.195,0.061c-0.706,0.025-1.402,0.282-3.128,0.654
		c3.246,1.22,5.701,0.95,8.028,1.316c7.408,1.166,14.854,2.107,22.256,3.313c9.243,1.503,18.553,2.647,27.634,5.06
		c2.348,0.623,4.789,1.015,7.212,1.199c8.101,0.619,15.868,2.823,23.645,4.908c9.048,2.427,18.001,5.2,27.019,7.733
		c5.771,1.622,11.675,2.823,17.362,4.682c7.292,2.385,14.466,5.155,21.626,7.919c6.642,2.563,13.145,5.484,19.805,7.986
		c9.11,3.42,18.546,6.011,27.101,10.823c0.161,0.091,0.365,0.094,0.537,0.17c9.054,4.067,18.133,8.079,27.148,12.232
		c4.759,2.192,9.412,4.615,14.101,6.961c6.865,3.438,13.901,6.582,20.533,10.425c9.383,5.438,18.43,11.449,27.677,17.125
		c12.175,7.474,23.008,16.771,34.504,25.162c4.681,3.417,9.22,6.988,13.656,10.731c5.868,4.953,12.156,9.405,18.269,14.069
		c2.234,1.707,4.451,3.439,6.713,5.11c4.676,3.454,9.415,6.816,14.055,10.321c7.026,5.312,13.86,10.893,21.023,16.015
		c4.449,3.182,8.57,6.681,12.485,10.452c7.162,6.896,14.241,13.875,21.412,20.761c2.84,2.728,5.984,5.152,8.725,7.972
		c6.532,6.725,12.965,13.55,19.331,20.435c9.951,10.766,18.928,22.302,27.108,34.476c5.858,8.716,11.677,17.476,17.954,25.883
		c4.847,6.488,9.414,13.099,13.109,20.294c8.396,16.352,16.785,32.707,25.132,49.083c1.958,3.843,3.821,7.734,5.593,11.667
		c1.997,4.439,3.742,8.994,5.771,13.417c5.866,12.785,11.75,25.559,16.497,38.818c1.706,4.763,3.43,9.524,5.371,14.194
		c4.899,11.803,8.825,23.931,11.835,36.324c4.425,18.228,10.15,36.062,15.67,53.963c2.425,7.873,5.135,15.681,6.404,23.869
		C1388.492,590.198,1388.572,591.213,1390.197,591.429z M25.956,630.388c0.266-0.082,0.532-0.164,0.797-0.247
		c0.622-5.199,1.206-10.403,1.875-15.6c0.838-6.504,1.492-13.046,2.683-19.488c1.669-9.027,3.742-17.981,5.678-26.961
		c0.829-3.842,1.65-7.688,2.653-11.485c2.913-11.049,5.808-22.104,8.909-33.101c4.475-15.87,9.241-31.656,15.48-46.945
		c5.52-13.523,11.192-26.987,16.64-40.539c3.992-9.927,8.267-19.713,13.134-29.242c2.985-5.848,5.857-11.753,8.849-17.601
		c2.904-5.674,5.733-11.395,8.876-16.937c6.567-11.579,13.248-23.095,20.022-34.557c4.771-8.067,9.574-16.129,14.718-23.962
		c7.721-11.757,15.808-23.269,23.064-35.335c3.085-5.132,6.52-10.086,10.144-14.855c3.287-4.326,7.032-8.305,10.607-12.41
		c6.408-7.359,12.49-15.043,19.333-21.975c14.238-14.423,28.774-28.557,43.406-42.583c8.528-8.174,17.402-15.996,26.265-23.812
		c4.917-4.336,10.105-8.367,15.218-12.478c5.115-4.112,10.293-8.145,15.433-12.226c3.822-3.033,7.553-6.186,11.455-9.109
		c13.117-9.82,27.425-17.618,42.144-24.733c7.591-3.668,15.029-7.648,22.567-11.427c6.019-3.017,11.962-6.229,18.151-8.852
		c15.182-6.434,30.44-12.689,45.753-18.8c10.439-4.164,20.988-8.061,31.95-10.708c6.55-1.582,13.048-3.385,19.598-4.971
		c12.202-2.953,24.413-5.881,36.648-8.693c5.107-1.174,10.271-2.13,15.438-2.997c10.166-1.703,20.353-3.27,30.529-4.902
		c6.29-1.008,12.578-2.033,18.865-3.049c5.186-0.838,10.38-1.621,15.554-2.528c3.506-0.616,6.982-1.39,10.462-2.141
		c0.275-0.058,0.47-0.495,0.798-0.863c-2.008-0.977-4.104-0.546-6.117-0.546c-177.068-0.022-354.135-0.018-531.202-0.017
		c-19.528,0-39.056,0-58.584,0.001c-1.502,0-3.008-0.04-4.505,0.051c-2.286,0.141-3.086,0.873-3.223,3.054
		c-0.116,1.871-0.066,3.754-0.066,5.631c-0.002,88.064-0.012,176.128,0.022,264.192c0.001,5.244,0.359,10.488,0.529,15.731
		c0.036,1.125,0.009,2.252-0.041,3.377c-0.157,3.555-0.473,7.107-0.49,10.662c-0.06,12.956-0.068,25.913,0.001,38.869
		c0.022,4.117,0.386,8.231,0.514,12.351c0.065,2.062-0.005,4.129-0.095,6.189c-0.104,2.431-0.4,4.855-0.424,7.286
		c-0.062,6.383-0.095,12.769-0.003,19.151c0.135,9.375-0.485,18.766,0.532,28.131c0.2,1.842-0.107,3.74-0.206,5.612
		c-0.098,1.87-0.329,3.738-0.329,5.606c-0.018,57.645-0.014,115.292-0.013,172.938C25.956,625.163,25.956,627.775,25.956,630.388z
		 M624.454,1392.441c-4.448-0.513-8.896-1.026-13.343-1.534c-10.995-1.255-21.993-2.48-32.983-3.768
		c-8.194-0.957-16.373-2.051-24.571-2.981c-8.033-0.911-15.979-2.325-23.67-4.79c-13.561-4.343-27-9.048-40.151-14.54
		c-3.111-1.301-6.27-2.501-9.449-3.619c-10.072-3.541-20.149-7.066-30.256-10.506c-5.496-1.87-11.114-3.389-16.573-5.356
		c-10.752-3.881-21.453-7.902-32.133-11.98c-10.505-4.011-20.979-8.101-31.424-12.266c-8.722-3.482-17.085-7.632-24.745-13.175
		c-4.401-3.185-9.075-5.998-13.724-8.821c-4.186-2.542-8.188-5.312-11.765-8.649c-6.462-6.032-13.443-11.396-20.653-16.483
		c-2.448-1.729-4.964-3.385-7.27-5.292c-11.129-9.206-21.977-18.753-33.667-27.273c-3.02-2.2-5.859-4.723-8.478-7.394
		c-9.716-9.918-19.341-19.925-28.932-29.964c-6.868-7.191-13.384-14.732-20.487-21.678c-11.064-10.818-20.721-22.701-29.243-35.596
		c-4.86-7.354-10.094-14.484-16.26-20.834c-6.439-6.629-11.786-14.09-17.018-21.658c-3.521-5.095-6.998-10.229-10.755-15.146
		c-8.572-11.212-16.333-22.912-22.49-35.641c-1.878-3.88-3.968-7.668-5.667-11.627c-4.217-9.812-8.032-19.802-12.436-29.524
		c-5.8-12.812-11.604-25.607-16.497-38.806c-1.757-4.737-4.167-9.261-5.623-14.078c-3.195-10.586-5.995-21.288-8.909-31.957
		c-2.271-8.309-4.466-16.639-6.704-24.959c-1.846-6.862-3.873-13.681-5.509-20.594c-1.421-6.004-2.42-12.106-3.582-18.171
		c-1.412-7.365-2.595-14.778-4.244-22.09c-2.474-10.968-4.777-21.954-6.34-33.095c-0.641-4.567-1.488-9.106-2.242-13.66
		c-0.587,2.771-0.696,5.519-0.697,8.265c-0.011,51.072-0.021,102.146,0.016,153.221c0.002,4.305,0.376,8.607,0.52,12.915
		c0.064,1.876,0.036,3.754-0.037,5.629c-0.136,3.556-0.455,7.112-0.483,10.667c-0.073,8.637-0.095,17.277,0,25.911
		c0.067,5.996,0.377,11.989,0.542,17.982c0.047,1.688,0.01,3.381-0.063,5.064c-0.14,3.183-0.459,6.359-0.48,9.538
		c-0.064,9.766-0.104,19.53,0.001,29.293c0.086,7.872-0.522,15.762,0.522,23.619c0.146,1.102-0.011,2.249-0.069,3.372
		c-0.147,2.806-0.458,5.604-0.458,8.41c-0.024,91.257-0.02,182.514-0.02,273.77c0,1.504,0.017,3.007,0.006,4.507
		c-0.014,2.073,0.534,3.998,1.169,5.792C32.751,1393.547,619.072,1393.479,624.454,1392.441z"/>
	<path stroke="#000000" stroke-width="2" stroke-miterlimit="10" d="M1390.197,832.306c0,3.248,0,5.499,0,7.748
		c0,39.997,0.014,79.992-0.027,119.987c-0.002,2.792-0.478,5.582-0.594,8.379c-0.1,2.432-0.066,4.878,0.037,7.312
		c0.119,2.802,0.541,5.594,0.557,8.39c0.067,11.267,0.082,22.532-0.002,33.8c-0.025,3.545-0.474,7.085-0.638,10.631
		c-0.094,2.06-0.074,4.13,0.021,6.189c0.161,3.358,0.602,6.716,0.616,10.073c0.072,14.646,0.056,29.293,0.004,43.938
		c-0.007,2.232-0.396,4.465-0.53,6.698c-0.104,1.682-0.179,3.374-0.097,5.058c0.154,3.17,0.623,6.335,0.625,9.506
		c0.034,90.884,0.034,181.765,0,272.647c-0.002,3.348-0.415,6.689-0.651,10.23c-1.646,0.178-2.914,0.383-4.191,0.437
		c-1.686,0.067-3.379,0.021-5.066,0.021c-146.84,0-293.679-0.005-440.519,0c-70.79,0.004-141.583,0.029-212.372,0.023
		c-4.294,0-8.607,0.172-12.891-0.904c0.89-0.116,1.775-0.288,2.668-0.341c21.357-1.246,42.727-2.295,64.064-3.775
		c14.209-0.989,28.418-2.216,42.46-4.817c3.872-0.718,7.8-1.116,11.7-1.695c2.592-0.388,5.209-0.695,7.759-1.285
		c8.58-1.986,17.063-4.453,25.713-6.025c7.599-1.381,14.95-3.513,22.3-5.699c10.591-3.155,21.187-6.27,31.582-10.092
		c13.896-5.113,27.539-10.832,41.221-16.449c11.431-4.694,22.65-9.916,33.871-15.11c10.713-4.959,21.31-10.171,31.938-15.308
		c1.517-0.733,2.938-1.659,4.396-2.512c7.129-4.155,14.138-8.529,21.406-12.42c10.109-5.407,19.721-11.585,29.126-18.095
		c6.471-4.476,12.826-9.114,19.233-13.679c0.458-0.328,0.951-0.624,1.349-1.014c7.553-7.343,16.312-13.176,24.521-19.697
		c7.49-5.953,14.925-11.962,21.846-18.601c5.137-4.924,10.709-9.389,15.879-14.279c4.768-4.511,9.343-9.228,13.843-14.005
		c8.354-8.871,16.366-18.055,25.006-26.679c8.626-8.612,16.711-17.767,25.012-26.7c4.216-4.535,8.441-9.066,12.555-13.693
		c5.995-6.743,11.219-14.061,16.153-21.62c7.177-10.996,14.698-21.769,22.006-32.677c3.022-4.515,5.882-9.135,8.802-13.713
		c3.733-5.853,7.512-11.674,11.167-17.577c7.108-11.479,14.223-22.959,21.163-34.545c2.304-3.846,4.028-8.039,6.104-12.027
		c3.718-7.151,7.62-14.209,11.228-21.417c4.025-8.041,8.034-16.104,11.62-24.348c3.282-7.539,5.992-15.328,8.951-23.008
		c1.348-3.496,2.62-7.023,4.051-10.488c4.148-10.03,8.252-20.088,10.904-30.636c3.192-12.696,6.11-25.468,9.134-38.207
		c1.078-4.543,2.077-9.108,3.203-13.64C1388.705,835.424,1389.338,834.337,1390.197,832.306z M1363.025,1382.188
		c1.176-0.236,1.935-0.309,2.636-0.552c1.149-0.401,2.064-1.28,1.881-2.489c-0.621-4.027-0.672-8.271-3.862-11.465
		c-1.192-1.188-2.249-2.515-3.385-3.764c-4.032-4.449-8.188-8.798-12.092-13.359c-18.435-21.539-37.659-42.352-57.854-62.235
		c-17.921-17.646-36.082-35.052-54.44-52.24c-9.856-9.228-20.317-17.815-30.593-26.588c-2.413-2.06-5.147-3.762-7.833-5.472
		c-0.892-0.567-2.19-1.075-3.14-0.865c-2.912,0.647-5.798,1.515-8.59,2.572c-1.923,0.728-2.36,3.039-1.033,4.72
		c1.159,1.469,2.45,2.847,3.784,4.162c6.686,6.586,13.326,13.22,20.12,19.689c25.283,24.08,50.44,48.289,74.979,73.131
		c13.982,14.155,27.604,28.645,40.855,43.486c7.373,8.261,14.914,16.41,23.79,23.124c3.132,2.369,6.467,4.495,9.859,6.475
		C1359.676,1381.432,1361.602,1381.724,1363.025,1382.188z M1118.048,1273.802c0.206,1.338,0.351,2.831,0.673,4.284
		c1.223,5.48,2.281,11.01,3.809,16.408c3.466,12.243,7.062,24.449,10.808,36.607c3.36,10.904,6.943,21.742,10.542,32.57
		c0.883,2.652,2.021,5.266,3.416,7.682c0.895,1.553,2.355,2.854,3.777,4.005c1.3,1.055,2.889,0.874,4.116-0.273
		c1.363-1.271,2.469-2.836,3.877-4.046c3.022-2.595,3.346-5.625,1.899-9.113c-0.355-0.857-0.498-1.803-0.776-2.697
		c-8.411-26.778-16.886-53.543-25.21-80.351c-2.797-9.004-3.076-7.555-9.63-11.365c-3.491-2.029-5.612-1.013-6.746,2.805
		C1118.289,1271.379,1118.245,1272.521,1118.048,1273.802z M1278.237,1132.278c-7.463,0.228-7.773,0.349-13.13,4.985
		c-0.282,0.245-0.611,0.439-0.881,0.697c-2.94,2.797-2.511,5.346,1.397,6.727c4.052,1.438,8.162,2.868,12.368,3.671
		c13.234,2.527,26.537,4.717,39.798,7.118c11.234,2.035,22.514,3.931,33.175,8.291c1.38,0.563,2.846,1.055,4.312,1.234
		c2.777,0.337,5.586,0.574,8.381,0.562c1.87-0.013,3.021-1.582,2.859-3.445c-0.08-0.922-0.295-1.854-0.604-2.729
		c-0.997-2.823-2.097-5.613-3.101-8.438c-0.736-2.069-2.051-3.6-4.117-4.312c-3.707-1.279-7.398-2.645-11.188-3.63
		c-19.619-5.096-39.672-7.694-59.764-10.003C1284.398,1132.622,1281.021,1132.487,1278.237,1132.278z M1007.878,1334.471
		c-2.845-0.158-4.524,1.349-4.531,3.721c-0.003,1.097,0.295,2.226,0.628,3.282c2.928,9.293,5.766,18.617,8.926,27.832
		c1.018,2.97,2.695,5.787,4.475,8.401c2.503,3.682,5.031,3.527,7.349-0.17c0.893-1.43,1.514-3.032,2.457-4.423
		c2.201-3.234,2.293-6.561,1.01-10.155c-1.824-5.114-3.382-10.323-5.24-15.424c-1.024-2.809-2.399-5.489-3.677-8.198
		c-0.66-1.396-1.65-2.537-3.229-2.927C1013.141,1335.692,1010.227,1335.025,1007.878,1334.471z M1343.131,1051.609
		c9.739,0.432,18.047-1.039,26.373-2.269c1.452-0.216,2.867-0.821,4.252-1.373c1.325-0.522,1.871-1.667,2.195-3.027
		c0.439-1.837-0.197-3.351-1.255-4.694c-1.155-1.46-2.553-2.727-3.724-4.177c-1.552-1.914-3.476-2.768-5.906-2.445
		c-2.967,0.392-5.934,0.776-8.893,1.215c-5.366,0.788-10.734,1.552-16.083,2.462c-2.012,0.342-4.029,0.91-5.442,2.622
		c-1.427,1.73-2.931,3.4-4.302,5.179c-1.77,2.293-1.018,4.798,1.787,5.73c1.398,0.464,2.923,0.678,4.401,0.744
		C1339.151,1051.692,1341.776,1051.609,1343.131,1051.609z"/>
	<path stroke="#000000" stroke-width="2" stroke-miterlimit="10" d="M1390.197,591.429c-1.625-0.217-1.705-1.23-1.846-2.13
		c-1.271-8.188-3.979-15.996-6.404-23.869c-5.519-17.902-11.243-35.735-15.67-53.963c-3.011-12.394-6.935-24.522-11.834-36.325
		c-1.941-4.669-3.666-9.431-5.371-14.192c-4.747-13.26-10.633-26.033-16.498-38.818c-2.029-4.423-3.773-8.978-5.772-13.416
		c-1.77-3.933-3.633-7.825-5.591-11.667c-8.348-16.377-16.734-32.731-25.132-49.083c-3.694-7.199-8.264-13.807-13.109-20.294
		c-6.277-8.409-12.097-17.167-17.954-25.883c-8.183-12.172-17.157-23.71-27.109-34.476c-6.366-6.885-12.797-13.708-19.331-20.435
		c-2.739-2.82-5.884-5.244-8.724-7.971c-7.172-6.887-14.252-13.865-21.412-20.761c-3.915-3.771-8.036-7.27-12.486-10.451
		c-7.164-5.122-13.997-10.701-21.024-16.016c-4.637-3.504-9.377-6.867-14.055-10.321c-2.26-1.671-4.476-3.402-6.712-5.11
		c-6.11-4.666-12.399-9.117-18.268-14.069c-4.437-3.743-8.976-7.315-13.656-10.732c-11.498-8.391-22.33-17.689-34.504-25.161
		c-9.247-5.676-18.295-11.687-27.678-17.125c-6.632-3.843-13.669-6.989-20.533-10.425c-4.688-2.348-9.342-4.77-14.101-6.962
		c-9.017-4.153-18.096-8.165-27.149-12.231c-0.172-0.076-0.375-0.08-0.536-0.17c-8.556-4.812-17.988-7.404-27.1-10.824
		c-6.661-2.501-13.165-5.422-19.806-7.985c-7.161-2.765-14.333-5.535-21.625-7.92c-5.689-1.859-11.592-3.06-17.363-4.681
		c-9.02-2.534-17.972-5.307-27.02-7.733c-7.774-2.085-15.542-4.29-23.644-4.908c-2.423-0.184-4.864-0.576-7.213-1.2
		c-9.081-2.413-18.391-3.556-27.633-5.06c-7.401-1.204-14.846-2.148-22.256-3.313c-2.325-0.366-4.783-0.096-8.027-1.315
		c1.725-0.371,2.42-0.629,3.127-0.654c2.062-0.071,4.132-0.061,6.194-0.061c198.661-0.002,397.322-0.002,595.982-0.001
		c1.691,0,3.384-0.04,5.07,0.033c2.794,0.122,3.552,0.885,3.729,3.782c0.092,1.496,0.036,3.003,0.036,4.505
		c0,68.349,0,136.698,0,205.045c0,21.969,0.021,43.939-0.024,65.908c-0.005,2.608-0.388,5.216-0.548,7.826
		c-0.092,1.493-0.401,3.067-0.073,4.479c0.956,4.093,0.614,8.219,0.63,12.333c0.046,12.957,0.065,25.913-0.014,38.868
		c-0.023,3.547-0.464,7.09-0.626,10.637c-0.095,2.06-0.097,4.13,0,6.189c0.159,3.357,0.6,6.71,0.626,10.065
		c0.083,10.515,0.051,21.031,0.021,31.546c-0.011,3.931,0.162,7.854-0.606,11.776c-0.391,1.988-0.41,4.188,0.003,6.164
		c0.782,3.735,0.6,7.468,0.603,11.208c0.021,43.75,0.014,87.501,0.014,131.25C1390.197,587.349,1390.197,589.361,1390.197,591.429z
		 M1187.443,193.664c0,1.363-0.029,1.927,0.007,2.487c0.155,2.374,1.63,3.88,3.971,3.738c1.263-0.076,2.595-0.441,3.728-1.011
		c1.664-0.838,3.293-1.835,4.74-3.006c9.629-7.779,19.354-15.453,28.771-23.486c14.126-12.051,27.886-24.532,42.05-36.534
		c25.062-21.228,51.07-41.25,77.586-60.628c8.021-5.86,15.746-12.13,23.497-18.349c1.87-1.501,3.554-3.377,4.89-5.372
		c2.141-3.193,1.068-6.437-2.466-7.71c-2.989-1.077-6.097-1.831-9.173-2.649c-1.731-0.459-3.201-0.08-4.619,1.23
		c-3.022,2.794-6.104,5.558-9.387,8.037c-10.923,8.247-21.949,16.358-32.931,24.529c-17.31,12.878-34.372,26.07-50.603,40.294
		c-16.642,14.588-33.212,29.265-49.622,44.113c-7.787,7.044-15.195,14.512-22.634,21.932c-2.231,2.229-3.974,4.948-5.952,7.433
		C1187.948,190.399,1187.343,192.313,1187.443,193.664z M1376.462,234.255c-0.436-0.654-0.742-1.39-1.276-1.867
		c-2.102-1.868-4.439-3.498-6.383-5.512c-2.306-2.393-4.822-2.528-7.733-1.641c-3.4,1.037-6.811,2.084-10.266,2.917
		c-14.379,3.467-28.819,6.677-43.148,10.333c-9.79,2.497-19.442,5.533-29.132,8.412c-4.352,1.292-7.757,3.649-8.935,8.443
		c-0.353,1.424-1.34,2.677-1.903,4.064c-1.127,2.77,0.197,4.909,3.234,4.965c1.852,0.035,3.741-0.264,5.562-0.653
		c4.393-0.938,8.742-2.067,13.131-3.034c11.707-2.578,23.438-5.03,35.129-7.683c10.046-2.279,20.092-4.581,30.043-7.23
		c5.773-1.54,11.373-3.744,17.023-5.728C1374.255,239.181,1375.994,237.567,1376.462,234.255z M1123.148,118.517
		c0.628-1.104,1.362-2.186,1.891-3.362c4.997-11.13,11.111-21.655,17.323-32.128c4.204-7.086,8.439-14.154,12.518-21.312
		c2.126-3.738,4.002-7.624,5.847-11.512c0.534-1.125,1.116-2.711,0.718-3.7c-1.106-2.751-2.574-5.393-4.183-7.895
		c-1.016-1.577-3.12-1.479-4.37-0.048c-0.86,0.984-1.613,2.069-2.348,3.155c-13.751,20.345-26.577,41.242-37.501,63.26
		c-1.574,3.178-3.028,6.45-4.153,9.807c-0.984,2.937,0.425,4.703,3.548,4.935C1116.021,119.984,1119.524,119.362,1123.148,118.517z
		 M1325.994,381.918c1.938,1.997,3.58,3.04,5.85,2.841c2.233-0.196,4.5-0.18,6.712-0.521c6.101-0.942,12.228-1.798,18.251-3.112
		c5.657-1.233,11.229-2.899,16.769-4.606c1.724-0.531,3.429-1.589,4.763-2.816c2.273-2.095,2.188-4.731-0.004-6.877
		c-1.736-1.699-3.716-3.158-5.434-4.876c-1.97-1.972-4.162-2.189-6.709-1.513c-8.139,2.162-16.309,4.203-24.434,6.405
		c-2.698,0.731-5.354,1.684-7.925,2.782c-1.137,0.484-2.345,1.396-2.935,2.443C1329.164,375.145,1327.725,378.387,1325.994,381.918z
		 M1026.306,34.436c-2.765,1.431-3.859,3.493-4.559,5.918c-2.741,9.554-4.535,19.243-4.415,29.226
		c0.01,0.933-0.03,1.876,0.083,2.799c0.326,2.646,2.718,4.227,5.279,3.486c0.702-0.204,1.387-0.559,2.003-0.961
		c1.564-1.018,3.06-2.145,4.632-3.15c1.715-1.097,2.501-2.607,2.666-4.635c0.319-3.907,0.776-7.804,1.224-11.699
		c0.342-2.967,0.835-5.918,1.105-8.89c0.115-1.271,0.302-2.898-0.335-3.811C1031.89,39.712,1029.976,36.431,1026.306,34.436z"/>
	<path stroke="#000000" stroke-width="2" stroke-miterlimit="10" d="M25.956,630.388c0-2.611,0-5.225,0-7.838
		c0-57.646-0.003-115.292,0.013-172.938c0-1.868,0.231-3.736,0.329-5.605c0.097-1.873,0.405-3.771,0.205-5.613
		c-1.015-9.365-0.396-18.755-0.531-28.13c-0.092-6.383-0.059-12.769,0.003-19.152c0.023-2.431,0.32-4.855,0.424-7.286
		c0.088-2.062,0.159-4.129,0.095-6.189c-0.127-4.118-0.492-8.233-0.514-12.351c-0.069-12.956-0.062-25.913-0.001-38.869
		c0.017-3.555,0.333-7.107,0.49-10.662c0.049-1.125,0.077-2.252,0.041-3.376c-0.17-5.244-0.528-10.488-0.529-15.732
		c-0.034-88.064-0.025-176.127-0.022-264.192c0-1.878-0.05-3.76,0.066-5.631c0.136-2.181,0.937-2.913,3.223-3.054
		c1.498-0.092,3.003-0.05,4.505-0.05c19.528-0.002,39.056-0.001,58.584-0.001c177.068-0.001,354.134-0.003,531.202,0.018
		c2.013,0,4.109-0.431,6.117,0.545c-0.327,0.369-0.521,0.805-0.797,0.864c-3.479,0.751-6.957,1.526-10.462,2.141
		c-5.173,0.907-10.368,1.69-15.555,2.528c-6.289,1.017-12.573,2.042-18.864,3.049c-10.178,1.633-20.364,3.2-30.53,4.902
		c-5.169,0.867-10.332,1.823-15.438,2.997c-12.235,2.812-24.446,5.741-36.648,8.693c-6.549,1.586-13.046,3.389-19.598,4.971
		c-10.962,2.647-21.511,6.544-31.949,10.708c-15.316,6.109-30.574,12.365-45.753,18.801c-6.19,2.623-12.133,5.835-18.152,8.852
		c-7.537,3.779-14.976,7.757-22.567,11.426c-14.719,7.115-29.027,14.912-42.144,24.733c-3.903,2.922-7.633,6.076-11.455,9.108
		c-5.14,4.08-10.318,8.114-15.433,12.226c-5.112,4.11-10.301,8.141-15.218,12.478c-8.862,7.817-17.737,15.638-26.265,23.812
		c-14.632,14.026-29.168,28.161-43.407,42.583c-6.843,6.931-12.925,14.615-19.333,21.975c-3.574,4.105-7.319,8.086-10.607,12.41
		c-3.624,4.769-7.059,9.723-10.144,14.855c-7.256,12.068-15.344,23.579-23.064,35.335c-5.144,7.834-9.949,15.895-14.718,23.964
		c-6.774,11.459-13.455,22.977-20.022,34.555c-3.143,5.542-5.974,11.262-8.876,16.936c-2.991,5.847-5.862,11.753-8.849,17.601
		c-4.866,9.529-9.143,19.314-13.134,29.242c-5.449,13.552-11.121,27.015-16.64,40.537c-6.239,15.291-11.005,31.077-15.48,46.946
		c-3.102,10.997-5.996,22.054-8.909,33.101c-1.002,3.798-1.824,7.646-2.653,11.486c-1.938,8.979-4.009,17.934-5.678,26.961
		c-1.19,6.441-1.845,12.983-2.683,19.488c-0.669,5.194-1.253,10.4-1.875,15.6C26.488,630.224,26.222,630.306,25.956,630.388z
		 M40.921,37.165c-0.563,1.957-0.508,3.714,0.573,5.442c1.388,2.22,2.514,4.625,4.068,6.718
		C53.166,59.56,60.656,69.89,68.596,79.861c11.919,14.964,24.024,29.788,36.34,44.426c11.11,13.203,22.413,26.256,33.991,39.049
		c12.968,14.327,26.558,28.077,40.805,41.145c4.001,3.67,8.305,7.028,12.636,10.312c1.908,1.447,4.153,2.542,6.387,3.448
		c2.167,0.878,4.177-0.176,4.963-2.346c0.508-1.403,0.733-2.906,1.125-4.353c0.698-2.573,0.143-4.769-1.738-6.702
		c-3.4-3.493-6.694-7.09-10.109-10.567c-11.83-12.044-23.827-23.924-35.512-36.105c-18.448-19.233-35.265-39.912-52.581-60.143
		C92.34,83.349,80.155,68.355,67.728,53.563c-4.101-4.88-8.402-9.593-12.67-14.33c-0.858-0.952-1.904-2.236-2.995-2.384
		C48.409,36.352,44.666,35.731,40.921,37.165z M139.927,270.848c-0.09-1.123-0.273-2.248-0.251-3.369
		c0.054-2.745-1.157-4.645-3.59-5.851c-1.847-0.917-3.634-1.958-5.505-2.823c-17.882-8.261-35.379-17.287-52.826-26.421
		c-8.301-4.346-16.856-8.212-25.112-12.637c-3.38-1.811-6.623-1.101-9.8-0.479c-3.704,0.723-4.445,4.824-1.54,7.411
		c1.534,1.367,3.314,2.458,4.988,3.667c11.437,8.257,23.796,15.007,36.071,21.872c13.585,7.597,27.498,14.574,41.577,21.208
		c2.867,1.351,5.897,2.447,8.955,3.29C138.099,278.148,140.353,276.166,139.927,270.848z M217.67,39.74
		c-0.714,0.581-1.605,1.002-2.024,1.706c-1.034,1.736-0.744,3.64-0.073,5.43c1.311,3.503,2.457,7.104,4.128,10.433
		c6.121,12.206,12.379,24.343,18.686,36.454c4.233,8.126,8.611,16.178,12.975,24.237c3.118,5.758,6.244,11.516,9.535,17.177
		c0.911,1.566,2.26,2.989,3.693,4.112c1.96,1.538,3.897,1.181,5.338-0.854c1.292-1.828,2.324-3.838,3.466-5.77
		c1.051-1.779,0.915-3.594,0.055-5.375c-0.977-2.022-1.967-4.041-3.05-6.008c-8.028-14.592-16.042-29.193-24.144-43.744
		c-5.826-10.466-11.848-20.825-17.647-31.306C226.207,41.889,221.766,41.484,217.67,39.74z M33.823,354.347
		c1.241,4.462,1.245,4.453,3.869,5.765c8.28,4.136,17.188,6.246,26.204,7.858c6.978,1.247,14.031,2.083,21.056,3.059
		c2.427,0.336,4.834,0.399,7.097-0.898c2.13-1.223,3.38-3.267,2.649-5.6c-1.259-4.019-3.155-7.697-7.817-8.693
		c-2.737-0.585-5.505-1.036-8.274-1.452c-4.245-0.64-8.524-1.078-12.75-1.82c-5.699-1.004-11.348-2.288-17.046-3.295
		c-1.798-0.316-3.917-0.696-5.485-0.058C40.09,350.527,37.128,352.511,33.823,354.347z M335.78,37.865
		c-2.167,0.053-3.426,1.155-3.359,2.645c0.116,2.596,0.167,5.299,0.933,7.74c1.905,6.069,4.094,12.057,6.376,17.998
		c1.34,3.49,3.063,6.832,4.632,10.232c0.805,1.741,1.945,3.175,3.679,4.11c2.033,1.096,3.62,0.935,4.901-0.944
		c1.261-1.848,2.208-3.908,3.363-5.833c1.185-1.975,0.979-3.827,0.024-5.86c-2.708-5.763-5.271-11.594-7.905-17.392
		c-1.161-2.559-2.324-5.118-3.555-7.643c-0.402-0.824-0.848-1.932-1.563-2.243C340.582,39.489,337.742,38.578,335.78,37.865z"/>
	<path stroke="#000000" stroke-width="2" stroke-miterlimit="10" d="M624.454,1392.441c-5.382,1.035-591.704,1.104-597.324,0.448
		c-0.636-1.792-1.183-3.718-1.169-5.791c0.01-1.5-0.006-3.003-0.006-4.507c0-91.256-0.004-182.513,0.02-273.77
		c0-2.806,0.311-5.604,0.458-8.41c0.059-1.123,0.215-2.271,0.069-3.372c-1.044-7.857-0.437-15.748-0.522-23.619
		c-0.105-9.763-0.067-19.529-0.001-29.293c0.021-3.18,0.34-6.355,0.48-9.538c0.073-1.686,0.11-3.379,0.063-5.064
		c-0.166-5.993-0.476-11.986-0.542-17.982c-0.095-8.634-0.073-17.273,0-25.911c0.029-3.555,0.347-7.11,0.483-10.667
		c0.073-1.875,0.101-3.753,0.037-5.63c-0.146-4.307-0.517-8.608-0.52-12.914c-0.037-51.073-0.026-102.146-0.017-153.221
		c0-2.746,0.109-5.492,0.697-8.264c0.754,4.553,1.601,9.091,2.241,13.658c1.562,11.142,3.865,22.13,6.34,33.097
		c1.649,7.311,2.832,14.724,4.244,22.088c1.162,6.064,2.161,12.166,3.582,18.172c1.636,6.912,3.663,13.73,5.509,20.594
		c2.238,8.318,4.434,16.649,6.704,24.959c2.915,10.668,5.714,21.371,8.909,31.956c1.455,4.818,3.865,9.341,5.623,14.079
		c4.893,13.196,10.696,25.994,16.496,38.806c4.403,9.724,8.219,19.714,12.436,29.523c1.699,3.958,3.79,7.749,5.667,11.628
		c6.157,12.727,13.918,24.429,22.49,35.64c3.758,4.917,7.234,10.053,10.755,15.146c5.232,7.567,10.579,15.03,17.018,21.659
		c6.167,6.35,11.401,13.479,16.26,20.834c8.521,12.894,18.179,24.775,29.243,35.595c7.104,6.945,13.618,14.486,20.486,21.678
		c9.59,10.04,19.216,20.045,28.933,29.964c2.619,2.669,5.458,5.192,8.477,7.394c11.69,8.521,22.537,18.067,33.668,27.273
		c2.305,1.907,4.822,3.562,7.27,5.291c7.209,5.089,14.191,10.452,20.653,16.484c3.577,3.337,7.579,6.108,11.765,8.65
		c4.647,2.82,9.322,5.637,13.722,8.819c7.661,5.543,16.024,9.692,24.746,13.174c10.445,4.165,20.92,8.258,31.424,12.267
		c10.68,4.079,21.381,8.102,32.133,11.981c5.458,1.97,11.077,3.486,16.573,5.356c10.105,3.439,20.184,6.966,30.256,10.506
		c3.18,1.118,6.337,2.319,9.449,3.619c13.15,5.492,26.591,10.197,40.151,14.54c7.692,2.464,15.638,3.878,23.67,4.79
		c8.197,0.931,16.375,2.024,24.571,2.981c10.99,1.286,21.988,2.511,32.983,3.768
		C615.559,1391.415,620.006,1391.931,624.454,1392.441z M42.108,1375.151c0,1.397-0.012,2.712,0.007,4.021
		c0.005,0.372,0.075,0.748,0.153,1.114c0.412,1.938,1.718,2.923,3.667,2.542c1.073-0.208,2.19-0.587,3.096-1.181
		c1.874-1.229,3.716-2.547,5.406-4.017c17.688-15.381,35.361-30.776,52.999-46.212c11.148-9.758,22.198-19.63,33.346-29.384
		c10.019-8.771,20.088-17.479,30.176-26.164c6.821-5.87,13.75-11.611,20.562-17.487c7.241-6.249,14.413-12.578,21.593-18.896
		c2.285-2.013,4.087-4.427,5.141-7.289c1.028-2.792-0.011-4.911-2.845-5.646c-3.44-0.89-6.944-1.549-10.43-2.26
		c-1.589-0.323-2.901,0.249-4.082,1.356c-4.233,3.973-8.404,8.019-12.786,11.816c-14.44,12.527-29.092,24.815-43.427,37.458
		c-26.01,22.943-51.943,45.977-77.703,69.2c-7.505,6.766-14.343,14.276-21.417,21.513
		C42.999,1368.27,41.144,1371.282,42.108,1375.151z M287.323,1282.363c-0.293-0.926-0.409-2.332-1.114-3.315
		c-1.634-2.274-3.5-4.39-5.375-6.479c-1.183-1.315-2.565-1.47-4.027-0.456c-0.89,0.618-1.782,1.426-2.294,2.354
		c-1.082,1.962-2.087,4.002-2.824,6.113c-3.453,9.895-6.937,19.779-10.163,29.746c-5.417,16.738-10.228,33.683-17.233,49.87
		c-0.668,1.542-1.372,3.127-1.671,4.762c-0.742,4.046-1.479,8.116-1.795,12.208c-0.265,3.43,2.059,5.104,5.477,4.401
		c0.729-0.149,1.432-0.437,2.133-0.694c2.107-0.777,4.174-1.689,6.322-2.331c2.406-0.72,3.667-2.318,4.504-4.583
		c1.688-4.562,3.624-9.038,5.295-13.608c8.297-22.714,15.303-45.823,21.01-69.324
		C286.23,1288.301,286.688,1285.521,287.323,1282.363z M103.142,1158.648c0,0.104,0,0.203,0.001,0.305
		c-15.742,0-31.487,0.202-47.223-0.096c-6.476-0.123-10.989,3.099-15.35,6.998c-1.671,1.496-1.327,3.951,0.391,5.355
		c1.325,1.087,2.729,1.938,4.495,2.131c2.792,0.303,5.569,0.932,8.362,0.999c14.42,0.352,28.842,0.714,43.265,0.783
		c11.982,0.06,23.966-0.318,35.952-0.429c4.12-0.036,8.241,0.235,12.362,0.222c3.736-0.014,7.471-0.183,11.202-0.375
		c0.908-0.048,1.837-0.369,2.688-0.727c3.002-1.267,3.915-3.431,2.381-6.325c-1.399-2.639-3.125-5.109-4.755-7.621
		c-1-1.54-2.469-2.188-4.317-2.073c-1.308,0.083-2.624,0.048-3.936,0.072C133.487,1158.128,118.314,1158.39,103.142,1158.648z
		 M63.102,1034.02c0-0.148,0-0.299,0-0.446c-3.752,0-7.506,0.094-11.254-0.03c-3.192-0.105-5.925,0.432-7.721,3.459
		c-0.548,0.922-1.481,1.713-2.406,2.297c-2.187,1.387-3.128,3.321-2.391,5.73c0.688,2.251,2.694,2.979,4.889,3.119
		c3.183,0.199,6.368,0.416,9.556,0.521c8.809,0.293,17.62,0.53,26.43,0.788c0.375,0.01,0.752-0.013,1.125-0.056
		c4.085-0.47,5.653-3.073,3.868-6.68c-0.91-1.838-2.267-3.454-3.21-5.281c-1.276-2.474-3.244-3.464-5.936-3.434
		C71.733,1034.054,67.417,1034.02,63.102,1034.02z M384.58,1358.175c0.79-13.703-0.312-12.121-8.401-18.92
		c-0.143-0.12-0.298-0.225-0.453-0.33c-2.26-1.534-4.385-1.112-5.542,1.361c-0.699,1.497-1.153,3.18-1.355,4.823
		c-0.865,7.051-1.786,14.104-2.293,21.187c-0.251,3.508,0.114,7.108,0.618,10.606c0.619,4.303,3.586,5.373,7.286,2.843
		c2.159-1.479,4.207-3.12,6.363-4.604c1.495-1.024,2.312-2.318,2.475-4.145C383.658,1366.718,384.139,1362.447,384.58,1358.175z"/>
	<path fill="#06AD94" d="M734.567,935.54c-14.454,0-28.911,0.062-43.363-0.03c-6.941-0.045-13.882-0.625-20.819-0.56
		c-15.741,0.15-31.482,0.395-47.213,0.896c-14.812,0.474-29.609,1.359-44.418,1.994c-5.437,0.234-10.849-0.022-16.277-0.72
		c-3.297-0.423-5.061-1.962-6.102-4.877c-3.592-10.064-7.185-20.126-10.839-30.168c-4.872-13.39-9.114-26.996-13.766-40.455
		c-6.561-18.974-12.013-38.265-17.939-57.42c-1.384-4.474-3.056-8.857-4.591-13.28c-2.03-5.845-4.055-11.688-6.083-17.532
		c-2.028-5.841-4-11.7-6.102-17.516c-2.99-8.284-5.961-16.577-9.155-24.783c-3.278-8.414-5.393-17.165-7.979-25.781
		c-2.478-8.254-5.246-16.422-7.733-24.674c-1.892-6.281-3.548-12.632-5.299-18.955c-0.148-0.54-0.098-1.156-0.324-1.653
		c-3.665-8.045,1.062-13.088,6.462-17.775c5.521-4.79,11.165-9.446,16.805-14.097c2.891-2.385,5.89-4.636,8.848-6.937
		c5.023-3.912,10.015-7.867,15.093-11.706c3.579-2.705,7.306-5.217,10.93-7.865c4.384-3.201,8.818-6.345,13.073-9.713
		c9.271-7.343,19.152-13.804,28.946-20.394c3.26-2.194,6.43-4.521,9.621-6.812c9.128-6.549,18.128-13.281,27.402-19.618
		c9.585-6.55,19.531-12.572,29.127-19.104c5.086-3.461,10.1-7.039,14.691-11.248c6.775-6.21,14.533-11.213,22.205-16.26
		c8.937-5.879,17.336-12.471,25.741-19.063c1.601-1.255,2.619-3.025,4.493-4.134c3.68-2.181,7.132-2.112,10.518,0.186
		c3.566,2.422,6.972,5.084,10.439,7.652c7.541,5.582,15.102,11.14,22.606,16.77c4.5,3.376,9.146,6.611,13.312,10.37
		c8.394,7.57,17.48,14.232,26.886,20.395c9.906,6.492,19.242,13.718,28.728,20.764c6.022,4.478,11.888,9.172,17.826,13.762
		c1.485,1.146,2.937,2.347,4.5,3.376c12.077,7.955,23.349,17.008,34.976,25.579c6.039,4.449,12.293,8.604,18.414,12.936
		c4.438,3.143,8.837,6.338,13.221,9.558c2.721,1.997,5.279,4.23,8.08,6.103c9.985,6.659,19.496,14.041,30.021,19.882
		c2.032,1.128,3.497,2.556,4.323,4.879c0.808,2.271,2.287,4.294,3.398,6.465c0.968,1.89,1.396,3.855,0.672,5.979
		c-0.422,1.238-0.595,2.559-0.994,3.805c-5.028,15.713-9.415,31.622-14.835,47.217c-2.705,7.786-4.844,15.771-7.136,23.695
		c-5.472,18.923-11.61,37.624-18.387,56.121c-5.159,14.088-10.094,28.261-15.087,42.409c-0.748,2.118-1.371,4.288-1.912,6.47
		c-3.208,12.952-8.466,25.231-12.455,37.924c-3.545,11.272-6.646,22.68-9.957,34.023c-1.366,4.679-2.765,9.351-4.165,14.017
		c-1.366,4.545-4.051,7.499-9.126,7.785c-3.363,0.189-6.707,0.784-10.072,0.938c-10.684,0.49-21.372,1.099-32.062,1.221
		c-17.271,0.193-34.545,0.036-51.816,0.027c-8.449-0.004-16.898,0-25.347,0C734.567,935.583,734.567,935.561,734.567,935.54z
		 M688.117,678.508c-1.514-1.675-1.582-3.37-0.161-5.065c0.961-1.148,1.96-2.274,3.011-3.343c1.692-1.712,2.372-3.813,2.353-6.134
		c-0.015-1.684,0.069-3.472-0.453-5.024c-3.843-11.467-10.254-20.401-23.075-22.881c-2.541-0.491-5.025-1.272-8.137-2.077
		c-4.676,1.882-9.898,3.945-15.091,6.083c-5.741,2.361-11.16,5.318-16.229,8.921c-3.396,2.414-6.416,5.11-8.535,8.811
		c-1.292,2.254-2.942,4.344-4.681,6.284c-4.086,4.559-6.474,9.665-7.536,15.828c-1.22,7.065-1.896,14.118-2.015,21.232
		c-0.165,9.766,0.737,19.476,1.863,29.176c1.588,13.685,4.828,26.912,10.462,39.487c3.387,7.562,7.544,14.578,14.017,20.114
		c7.612,6.513,15.906,11.789,25.083,15.761c10.889,4.71,22.207,8.128,33.973,9.218c9.672,0.896,19.451,0.97,29.174-0.659
		c19.929-3.344,38.146-10.505,54.224-22.958c8.13-6.297,14.826-13.684,19.444-22.904c0.5-0.995,0.973-2.146,1.793-2.812
		c2.339-1.892,2.542-4.419,2.628-7.094c0.111-3.372,0.24-6.746,0.531-10.105c0.501-5.791,0.874-11.61,1.764-17.346
		c1.322-8.532-0.604-17.227,1.877-25.625c-1.898-1.167-2.89-2.491-3.354-4.511c-0.58-2.518-1.854-4.871-2.807-7.306
		c-0.545-1.393-1.216-2.76-1.539-4.204c-3.341-14.87-11.204-27.26-21.059-38.557c-0.579-0.664-1.735-1.66-2.169-1.469
		c-2.037,0.898-3.19-0.429-4.514-1.388c-3.982-2.889-8.367-4.942-13.014-6.523c-2.826-0.965-5.541-2.263-8.353-3.275
		c-4.224-1.521-8.474-2.971-12.747-4.343c-0.975-0.313-2.093-0.184-3.11-0.256c-0.374,3.688-0.278,7.137-1.132,10.331
		c-2.598,9.74-7.614,17.906-16.65,23.055c-2.964,1.687-5.725,3.462-7.291,6.716c-0.631,1.311-1.731,2.489-2.862,3.436
		c-0.951,0.798-2.223,1.569-3.407,1.666C696.307,679.098,692.174,679.697,688.117,678.508z M813.73,701.062
		c2.116,8.861,2.966,17.538,3.648,26.253c0.698,8.91-0.812,17.742-0.796,26.917c8.272-1.991,13.483-7.048,17.272-13.814
		c1.736-3.102,3.403-6.244,3.359-9.987c-0.099-7.894-2.29-15.187-6.746-21.636C826.793,703.467,821.924,699.869,813.73,701.062z
		 M598.237,750.347c-0.129-1.7-0.144-2.971-0.333-4.211c-1.417-9.27-2.21-18.582-2.061-27.968c0.094-5.799,0.17-11.6,0.201-17.4
		c0.006-1.038,0.352-2.314-1.084-2.84c-0.367,0.12-0.758,0.168-1.057,0.357c-0.469,0.303-0.912,0.663-1.303,1.062
		c-7.8,7.966-11.708,17.562-12.123,28.674c-0.116,3.133,0.771,5.904,2.288,8.536c0.748,1.296,1.549,2.576,2.479,3.743
		C588.652,744.562,592.649,748.084,598.237,750.347z"/>
	<path fill="#06AD94" d="M406.587,1304.454c-5.404-1.344-9.634-3.351-13.527-5.868c-6.134-3.966-12.019-8.318-18.032-12.475
		c-1.386-0.958-2.809-1.893-4.307-2.654c-10.736-5.479-20.404-12.604-30.182-19.553c-6.569-4.67-13.083-9.422-19.572-14.203
		c-3.312-2.441-6.308-5.38-9.82-7.466c-5.557-3.307-9.887-8.022-14.715-12.126c-5.408-4.597-10.067-10.065-15.167-15.036
		c-5.777-5.627-11.682-11.124-17.534-16.674c-2.039-1.931-4.143-3.796-6.125-5.783c-6.892-6.904-13.789-13.804-20.586-20.802
		c-2.477-2.549-4.757-5.302-6.993-8.069c-6.953-8.607-13.832-17.272-20.763-25.896c-0.937-1.163-1.978-2.254-3.028-3.319
		c-3.941-4.005-7.863-8.001-11.27-12.521c-4.401-5.841-9.141-11.429-13.734-17.128c-0.706-0.878-1.467-1.719-2.093-2.648
		c-7.423-11.053-15.765-21.481-22.422-33.056c-1.308-2.274-2.779-4.465-4.328-6.581c-4.667-6.382-8.448-13.263-11.979-20.318
		c-2.177-4.352-4.727-8.521-7.199-12.721c-5.993-10.186-11.815-20.457-16.937-31.117c-1.212-2.523-2.722-4.908-4.126-7.337
		c-1.571-2.717-3.418-5.318-3.677-8.68c0.727-0.14,1.301-0.417,1.807-0.325c7.363,1.364,14.834,1.974,22.167,3.656
		c7.473,1.719,15.164,2.46,22.693,3.968c16.702,3.346,33.451,6.527,50.007,10.499c11.673,2.8,23.515,4.701,35.167,7.52
		c16.195,3.915,32.327,8.095,48.545,11.906c5.805,1.365,11.643,2.569,17.639,3.263c8.525,0.979,16.992,2.803,25.345,4.843
		c11.113,2.716,22.333,4.803,33.582,6.795c2.386,0.423,4.796-0.175,7.212,0.718c3.292,1.216,5.286,3.375,6.17,6.642
		c0.39,1.442,0.621,2.938,0.778,4.427c1.498,14.184,3.036,28.359,4.401,42.554c0.521,5.414,0.745,10.865,0.888,16.308
		c0.311,11.659,2.01,23.158,3.693,34.67c0.895,6.124,1.641,12.275,2.226,18.435c1.169,12.329,2.145,24.677,3.281,37.01
		c0.344,3.733,1.04,7.434,1.433,11.166c1.141,10.818,2.145,21.653,3.329,32.473c0.838,7.642,1.895,15.259,2.833,22.893
		c0.619,5.021,1.207,10.051,1.804,15.076c0.907,7.636,1.817,15.27,2.713,22.903C406.33,1301.096,406.407,1302.379,406.587,1304.454z
		"/>
	<path fill="#06AD94" d="M892.294,1335.108c0.582-2.946,0.731-5.21,1.485-7.251c3.512-9.504,5.428-19.463,8.541-29.077
		c5.307-16.38,10.554-32.781,15.892-49.147c2.724-8.349,5.638-16.633,8.394-24.967c2.643-7.995,5.011-16.084,7.828-24.016
		c3.822-10.754,8.111-21.345,11.897-32.109c2.04-5.802,3.964-11.645,5.162-17.754c1.802-9.194,5.163-17.979,8.356-26.774
		c3.576-9.855,6.551-19.892,9.209-30.028c0.609-2.315,0.412-4.732,1.565-7.029c1.783-3.553,4.492-5.385,8.31-5.562
		c3.558-0.165,7.129-0.06,10.692-0.06c11.822,0.003,23.646-0.072,35.469,0.051c5.244,0.053,10.486,0.507,15.729,0.758
		c3.747,0.179,7.501,0.517,11.242,0.449c9.753-0.176,19.518,0.253,29.244-0.865c2.597-0.298,5.248-0.164,7.871-0.11
		c13.129,0.263,26.256,0.764,39.388,0.806c21.195,0.066,42.393-0.112,63.589-0.293c6.375-0.053,12.745-0.571,19.12-0.675
		c7.874-0.128,15.752-0.048,23.629-0.058c1.296-0.003,2.59,0,4.425,0c-0.462,1.159-0.626,2.044-1.104,2.693
		c-1.562,2.108-3.193,4.169-4.875,6.182c-6.732,8.059-13.457,16.124-20.263,24.12c-4.253,4.997-8.663,9.86-12.966,14.817
		c-1.229,1.414-2.505,2.836-3.446,4.435c-3.649,6.205-8.403,11.509-13.452,16.549c-7.967,7.948-15.852,15.995-24.129,23.614
		c-9.108,8.388-18.51,16.462-27.022,25.479c-2.054,2.177-3.999,4.466-5.892,6.786c-6.19,7.604-13.298,14.252-21.048,20.23
		c-1.188,0.915-2.437,1.763-3.556,2.759c-8.708,7.764-18.445,14.106-28.16,20.484c-2.978,1.956-5.87,4.042-8.826,6.035
		c-2.33,1.572-4.59,3.294-7.064,4.598c-9.13,4.813-17.926,10.197-26.455,15.966c-8.882,6.007-18.207,11.096-27.938,15.537
		c-5.102,2.328-10.054,4.977-15.116,7.394c-3.041,1.447-6.131,2.807-9.252,4.07c-10.404,4.219-20.834,8.387-31.264,12.549
		c-2.258,0.904-4.531,1.783-6.836,2.555c-7.457,2.507-14.936,4.949-22.398,7.438c-2.467,0.819-4.938,1.632-7.359,2.571
		c-5.209,2.019-10.385,4.133-15.585,6.173C894.646,1334.689,893.887,1334.758,892.294,1335.108z"/>
	<path fill="#06AD94" d="M1358.631,684.467c-2.593,0.111-4.182-0.919-5.811-1.816c-5.247-2.894-10.547-5.698-15.72-8.727
		c-14.386-8.422-28.745-16.887-43.057-25.435c-7.705-4.604-15.104-9.748-22.974-14.038c-7.575-4.13-14.938-8.58-22.202-13.192
		c-9.643-6.116-19.057-12.592-28.73-18.658c-5.371-3.37-10.918-6.453-16.65-9.266c-7.885-3.864-15.472-8.403-22.89-13.122
		c-9.178-5.843-18.656-11.115-28.245-16.227c-1.957-1.045-4.149-1.321-6.068-2.733c-2.921-2.15-3.918-4.898-3.959-8.17
		c-0.022-1.661,0.405-3.347,0.773-4.989c3.203-14.267,6.396-28.535,9.696-42.78c0.973-4.195,2.114-8.372,3.471-12.459
		c4.149-12.512,6.282-25.464,8.681-38.364c0.855-4.605,1.854-9.19,2.937-13.748c3.289-13.863,7.018-27.635,9.887-41.583
		c3.176-15.438,6.988-30.718,10.406-46.091c1.099-4.937,1.889-9.94,2.881-14.902c1.026-5.145,2.121-10.276,3.201-15.411
		c1.932-9.169,3.855-18.34,5.822-27.501c0.262-1.214,0.755-2.377,1.283-4.007c1.143,1.099,2.009,1.793,2.708,2.629
		c5.399,6.472,10.772,12.968,16.148,19.461c3.944,4.768,7.923,9.511,11.808,14.329c2.354,2.915,4.712,5.844,6.81,8.943
		c9.247,13.666,18.47,27.35,27.537,41.136c2.042,3.104,3.582,6.574,5.075,9.998c4.342,9.963,8.371,20.064,12.866,29.958
		c2.472,5.447,5.452,10.691,8.525,15.836c5.509,9.214,10.058,18.857,13.834,28.888c1.521,4.034,3.122,8.039,4.572,12.097
		c1.128,3.162,2.082,6.39,3.104,9.592c3.762,11.79,7.558,23.569,11.255,35.38c1.345,4.29,2.52,8.635,3.645,12.987
		c2.771,10.704,5.605,21.376,8.89,31.949c2.213,7.126,3.359,14.604,4.72,21.973c2.143,11.607,4.08,23.253,6.066,34.891
		c1.421,8.309,2.85,16.618,4.146,24.946c1.817,11.67,3.519,23.359,5.256,35.042C1358.461,682.185,1358.503,683.104,1358.631,684.467
		z"/>
	<path fill="#06AD94" d="M60.023,660.624c0.363-3.422,0.729-6.162,1.398-8.859c2.347-9.461,4.898-18.882,6.991-28.4
		c1.245-5.663,1.792-11.48,2.629-17.232c1.191-8.172,2.457-16.314,5.04-24.213c0.984-3.011,1.276-6.243,1.979-9.353
		c0.826-3.653,1.725-7.292,2.642-10.926c1.835-7.258,3.915-14.463,5.493-21.777c1.07-4.962,2.336-9.83,3.951-14.635
		c3.466-10.31,6.688-20.703,10.339-30.943c1.82-5.106,4.384-9.945,6.578-14.918c1.433-3.251,2.832-6.519,4.201-9.796
		c1.442-3.456,2.792-6.951,4.25-10.401c2.845-6.734,5.815-13.396,10.041-19.436c1.277-1.826,2.228-3.922,3.085-5.993
		c5.465-13.207,12.868-25.411,19.587-37.968c1.676-3.132,3.306-6.286,5.043-9.384c1.466-2.612,3.044-5.161,4.591-7.73
		c3.383-5.622,6.673-11.302,10.194-16.836c4.529-7.12,9.15-14.185,13.909-21.15c5.506-8.062,10.783-16.253,15.531-24.789
		c1.452-2.61,3.114-5.121,4.869-7.542c5.945-8.195,12.001-16.312,17.96-24.5c2.096-2.879,4.007-5.891,6.057-8.804
		c0.512-0.727,1.228-1.307,2.054-2.167c0.472,1.005,0.93,1.639,1.074,2.338c1.291,6.244,2.624,12.481,3.741,18.757
		c0.756,4.242,1.376,8.528,1.711,12.822c0.672,8.639,2.655,17.041,4.4,25.481c1.404,6.794,3.268,13.496,4.518,20.314
		c2.571,14.021,4.866,28.095,7.285,42.145c0.348,2.03,0.661,4.073,1.144,6.073c3.702,15.334,5.782,30.976,8.855,46.428
		c1.17,5.883,2.691,11.695,3.901,17.572c1.133,5.502,2.068,11.05,3.086,16.575c0.373,2.026,0.642,4.078,1.118,6.08
		c2.864,12.031,4.819,24.282,8.631,36.086c0.88,2.729,1.372,5.336-0.096,8.129c-0.851,1.617-1.155,3.57-1.468,5.411
		c-0.516,3.036-2.25,5.074-4.814,6.56c-0.974,0.564-1.917,1.182-2.888,1.751c-6.633,3.892-13.232,7.847-19.918,11.646
		c-6.846,3.893-13.829,7.543-20.664,11.452c-8.958,5.125-17.884,10.309-26.728,15.627c-18.337,11.027-37.295,20.9-56.307,30.687
		c-10.838,5.582-21.638,11.237-32.397,16.963c-3.805,2.025-7.434,4.379-11.163,6.549c-4.051,2.354-8.084,4.745-12.198,6.984
		c-8.234,4.487-16.512,8.896-24.787,13.306C63.22,659.276,61.887,659.785,60.023,660.624z"/>
	<path fill="#06AD94" d="M500.666,95.521c4.138-1.333,7.105-2.438,10.155-3.24c5.431-1.429,10.912-2.663,16.366-4.01
		c1.27-0.314,2.506-0.758,3.759-1.144c1.965-0.606,3.891-1.435,5.899-1.781c8.312-1.429,16.451-3.727,24.887-4.574
		c5.387-0.541,10.699-1.795,16.062-2.623c5.924-0.915,11.861-1.74,17.803-2.55c14.837-2.023,29.774-3.178,44.591-5.462
		c7.568-1.168,15.314-1.304,22.994-1.631c11.802-0.504,23.615-1.078,35.422-1.064c16.121,0.02,32.275-0.184,48.354,1.182
		c14.776,1.254,29.609,1.013,44.371,2.25c8.216,0.688,16.407,1.692,24.613,2.494c22.549,2.203,44.018,8.952,65.445,15.743
		c8.193,2.596,16.096,6.128,24.107,9.292c1.159,0.459,2.188,1.248,3.732,2.151c-1.883,1.617-3.354,3.036-4.979,4.247
		c-6.004,4.472-12.078,8.843-18.084,13.309c-6.919,5.142-13.696,10.476-20.709,15.483c-7.163,5.112-14.557,9.898-21.807,14.892
		c-3.233,2.229-6.332,4.656-9.537,6.927c-10.535,7.458-20.631,15.542-31.78,22.126c-3.544,2.092-6.834,4.609-10.257,6.905
		c-6.993,4.694-14.016,9.348-20.988,14.07c-1.697,1.151-3.425,2.347-4.854,3.804c-6.887,7.028-15.18,12.233-23.232,17.667
		c-9.179,6.192-18.018,12.796-26.734,19.594c-1.762,1.373-2.858,3.354-4.924,4.502c-3.654,2.034-7.177,2.041-10.562-0.141
		c-3.308-2.128-6.394-4.601-9.562-6.942c-8.142-6.025-16.302-12.026-24.403-18.105c-4.199-3.151-8.504-6.212-12.387-9.726
		c-8.38-7.58-17.462-14.242-26.872-20.392c-9.755-6.376-18.948-13.479-28.269-20.426c-6.316-4.708-12.478-9.624-18.716-14.436
		c-1.486-1.146-2.95-2.328-4.516-3.358c-11.296-7.429-21.832-15.897-32.731-23.866c-6.964-5.09-14.008-10.079-21.172-14.878
		C514.979,107.003,508.42,101.446,500.666,95.521z"/>
	<path fill="#06AD94" d="M705.121,253.783c2.393,1.617,5.003,3.38,7.484,5.055c1.546,3.377,1.652,6.749,1.714,10.118
		c0.352,19.88,0.689,39.764,1.031,59.646c0.364,21.195,0.81,42.392,1.063,63.586c0.199,16.508,0.175,33.018,0.215,49.526
		c0.006,2.248-0.155,4.5-0.32,6.744c-0.363,4.982-2.99,8.781-6.504,12.068c-1.143,1.068-3.303,0.715-3.829-0.745
		c-0.757-2.099-1.441-4.279-1.717-6.48c-0.767-6.14-1.5-12.295-1.894-18.466c-0.669-10.479-1.194-20.973-1.555-31.467
		c-0.587-17.058-0.96-34.121-1.48-51.181c-0.45-14.808-0.096-29.607,0.241-44.409c0.109-4.877,0.016-9.759,0.19-14.632
		c0.317-8.809,0.716-17.617,1.195-26.419c0.171-3.173,0.673-6.327,1.02-9.49C702.162,255.554,703.181,254.565,705.121,253.783z"/>
	<path fill="#06AD94" d="M956.878,654.196c-0.743-1.917-1.412-3.646-2.081-5.371c0.803-1.993,2.159-3.365,3.83-4.713
		c8.788-7.093,18.396-12.942,28.127-18.559c29.566-17.062,60.242-31.938,91.523-45.553c13.912-6.055,28.18-11.21,43.01-14.646
		c3.823-0.887,7.604-1.957,11.413-2.907c2.542-0.634,3.553-0.34,6.181,1.741c-0.433,0.559-0.759,1.292-1.32,1.646
		c-8.69,5.512-17.422,10.905-26.865,15.152c-9.215,4.146-18.057,9.112-27.141,13.554c-10.265,5.018-20.645,9.796-30.925,14.776
		c-7.585,3.673-15.105,7.477-22.632,11.269c-5.854,2.948-11.706,5.897-17.496,8.969c-8.762,4.646-17.52,9.306-26.183,14.135
		c-6.877,3.835-13.718,7.679-21.259,10.135C962.479,654.665,960.012,655.12,956.878,654.196z"/>
	<path fill="#06AD94" d="M456.373,638.666c-6.493,0.693-12.42,0.326-18.208-1.528c-14.991-4.8-29.649-10.438-43.752-17.473
		c-7.022-3.503-14.181-6.741-21.136-10.374c-18.771-9.806-37.059-20.456-54.769-32.085c-10.187-6.689-20.208-13.616-29.723-21.237
		c-2.619-2.099-5.12-4.396-7.389-6.867c-2.102-2.289-1.263-4.562,1.711-5.52c0.178-0.057,0.36-0.104,0.541-0.155
		c6.714-1.914,6.714-1.916,12.959,2.015c20.453,12.875,40.764,25.982,61.886,37.763c26.831,14.964,53.989,29.281,81.915,42.119
		c4.583,2.106,8.929,4.732,13.352,7.177C455.976,633.725,456.721,635.688,456.373,638.666z"/>
	<path fill="#06AD94" d="M534.365,946.348c2.021,0.952,3.495,1.648,5.343,2.521c-0.771,1.217-1.186,2.26-1.921,2.976
		c-3.62,3.521-7.363,6.918-10.99,10.433c-6.742,6.528-14.09,12.339-21.617,17.899c-8.888,6.569-17.9,12.975-27.022,19.214
		c-6.948,4.755-14.179,9.096-21.229,13.7c-7.057,4.607-14.063,9.293-21.064,13.985c-8.404,5.632-16.804,11.271-25.155,16.979
		c-4.53,3.1-9.625,4.981-14.57,7.214c-2.493,1.123-4.328,0.621-5.946-2.127c0.662-2.149,1.234-4.698,2.251-7.056
		c0.644-1.487,1.733-2.971,3.007-3.961c4.722-3.668,9.536-7.232,14.441-10.652c10.607-7.39,21.18-14.841,31.972-21.955
		c20.336-13.406,40.687-26.801,61.767-39.031c4.86-2.822,9.772-5.552,14.682-8.284C524.027,955.026,530.048,952.291,534.365,946.348
		z"/>
	<path fill="#06AD94" d="M962.797,1071.66c-1.247-0.46-2.3-0.728-3.239-1.21c-6.104-3.125-11.016-7.789-15.556-12.762
		c-8.093-8.859-15.964-17.921-23.836-26.979c-6.149-7.074-12.299-14.157-18.205-21.438c-12.756-15.732-25.493-31.501-35.332-49.32
		c-1.529-2.769-2.72-5.746-3.838-8.715c-0.855-2.279,0.193-3.511,2.734-3.455c1.491,0.03,2.982,0.274,4.473,0.432
		c1.972,0.206,3.527,1.118,4.745,2.688c1.148,1.48,2.415,2.874,3.551,4.361c17.09,22.368,35.31,43.804,53.54,65.234
		c8.138,9.566,15.854,19.491,23.672,29.325c2.568,3.229,4.849,6.714,6.248,10.629C963,1063.936,964.055,1067.509,962.797,1071.66z"
		/>
	<path fill="#F9EF69" d="M1363.025,1382.188c-1.424-0.466-3.351-0.757-4.916-1.67c-3.395-1.979-6.729-4.104-9.859-6.475
		c-8.876-6.714-16.417-14.863-23.79-23.124c-13.251-14.841-26.872-29.328-40.854-43.485c-24.538-24.845-49.696-49.053-74.979-73.132
		c-6.794-6.472-13.435-13.104-20.12-19.689c-1.334-1.315-2.623-2.693-3.784-4.162c-1.327-1.679-0.89-3.991,1.033-4.719
		c2.792-1.06,5.678-1.927,8.59-2.573c0.948-0.209,2.248,0.298,3.14,0.866c2.686,1.71,5.42,3.412,7.834,5.471
		c10.275,8.772,20.734,17.361,30.592,26.588c18.358,17.188,36.521,34.596,54.44,52.24c20.194,19.885,39.421,40.7,57.854,62.235
		c3.904,4.562,8.06,8.91,12.092,13.359c1.136,1.249,2.191,2.574,3.385,3.764c3.19,3.192,3.241,7.438,3.862,11.466
		c0.186,1.211-0.729,2.089-1.881,2.488C1364.96,1381.879,1364.201,1381.95,1363.025,1382.188z"/>
	<path fill="#F9EF69" d="M1118.048,1273.802c0.197-1.28,0.241-2.422,0.556-3.483c1.133-3.816,3.255-4.834,6.745-2.804
		c6.555,3.811,6.833,2.36,9.63,11.364c8.325,26.809,16.798,53.571,25.209,80.352c0.279,0.894,0.423,1.838,0.777,2.697
		c1.444,3.487,1.123,6.519-1.9,9.112c-1.407,1.209-2.513,2.772-3.875,4.045c-1.229,1.149-2.816,1.33-4.117,0.275
		c-1.421-1.153-2.885-2.453-3.777-4.005c-1.396-2.416-2.533-5.029-3.416-7.683c-3.599-10.828-7.182-21.666-10.542-32.569
		c-3.744-12.16-7.342-24.366-10.808-36.609c-1.526-5.398-2.586-10.928-3.809-16.407
		C1118.398,1276.633,1118.254,1275.139,1118.048,1273.802z"/>
	<path fill="#F9EF69" d="M1278.237,1132.278c2.785,0.21,6.161,0.344,9.509,0.729c20.092,2.308,40.145,4.908,59.764,10.003
		c3.791,0.985,7.479,2.351,11.188,3.629c2.066,0.713,3.381,2.244,4.117,4.313c1.003,2.824,2.104,5.614,3.101,8.438
		c0.312,0.873,0.522,1.807,0.604,2.729c0.162,1.863-0.988,3.434-2.859,3.444c-2.794,0.015-5.603-0.225-8.381-0.562
		c-1.467-0.179-2.933-0.67-4.312-1.234c-10.661-4.361-21.938-6.256-33.175-8.292c-13.261-2.401-26.562-4.59-39.798-7.117
		c-4.206-0.803-8.316-2.234-12.367-3.671c-3.909-1.382-4.34-3.931-1.397-6.728c0.269-0.257,0.598-0.451,0.88-0.696
		C1270.464,1132.627,1270.773,1132.506,1278.237,1132.278z"/>
	<path fill="#F9EF69" d="M1007.878,1334.471c2.349,0.556,5.262,1.223,8.167,1.939c1.577,0.39,2.567,1.533,3.229,2.927
		c1.276,2.71,2.651,5.392,3.677,8.198c1.858,5.101,3.416,10.309,5.24,15.424c1.284,3.596,1.191,6.921-1.009,10.155
		c-0.944,1.391-1.565,2.995-2.458,4.423c-2.316,3.695-4.846,3.851-7.349,0.17c-1.779-2.615-3.457-5.434-4.475-8.401
		c-3.16-9.215-5.998-18.539-8.926-27.832c-0.332-1.058-0.63-2.187-0.628-3.282
		C1003.354,1335.818,1005.033,1334.312,1007.878,1334.471z"/>
	<path fill="#F9EF69" d="M1343.131,1051.609c-1.354,0-3.979,0.082-6.595-0.031c-1.479-0.066-3.003-0.28-4.401-0.745
		c-2.806-0.934-3.557-3.437-1.787-5.729c1.371-1.778,2.875-3.449,4.302-5.18c1.413-1.712,3.432-2.279,5.442-2.622
		c5.349-0.909,10.717-1.674,16.083-2.462c2.959-0.438,5.927-0.822,8.893-1.215c2.432-0.321,4.354,0.531,5.906,2.445
		c1.171,1.449,2.567,2.717,3.724,4.177c1.058,1.345,1.694,2.857,1.255,4.694c-0.324,1.361-0.87,2.505-2.195,3.027
		c-1.385,0.553-2.8,1.157-4.252,1.373C1361.178,1050.571,1352.87,1052.041,1343.131,1051.609z"/>
	<path fill="#F9EF69" d="M1187.443,193.664c-0.102-1.35,0.505-3.265,1.853-4.954c1.98-2.485,3.72-5.204,5.952-7.433
		c7.439-7.42,14.847-14.887,22.633-21.932c16.41-14.848,32.982-29.525,49.623-44.113c16.229-14.225,33.293-27.416,50.603-40.294
		c10.979-8.171,22.008-16.282,32.93-24.529c3.283-2.479,6.363-5.242,9.387-8.037c1.419-1.312,2.89-1.69,4.62-1.23
		c3.076,0.818,6.186,1.572,9.173,2.649c3.535,1.273,4.605,4.518,2.466,7.71c-1.336,1.994-3.02,3.871-4.89,5.372
		c-7.752,6.218-15.477,12.489-23.497,18.35c-26.517,19.378-52.525,39.399-77.585,60.628c-14.166,12.001-27.924,24.483-42.051,36.534
		c-9.416,8.033-19.142,15.707-28.771,23.486c-1.447,1.169-3.076,2.167-4.74,3.006c-1.132,0.569-2.464,0.934-3.728,1.011
		c-2.341,0.142-3.813-1.363-3.971-3.738C1187.414,195.59,1187.443,195.026,1187.443,193.664z"/>
	<path fill="#F9EF69" d="M1376.462,234.255c-0.468,3.314-2.207,4.928-4.653,5.786c-5.649,1.984-11.25,4.189-17.023,5.727
		c-9.951,2.65-19.997,4.951-30.043,7.231c-11.69,2.652-23.422,5.104-35.129,7.683c-4.389,0.965-8.738,2.095-13.131,3.034
		c-1.821,0.39-3.711,0.688-5.562,0.653c-3.037-0.058-4.361-2.196-3.234-4.965c0.563-1.387,1.552-2.641,1.903-4.065
		c1.178-4.793,4.583-7.151,8.935-8.442c9.688-2.879,19.342-5.914,29.132-8.412c14.329-3.656,28.771-6.866,43.148-10.333
		c3.455-0.832,6.864-1.88,10.266-2.917c2.911-0.887,5.429-0.753,7.733,1.641c1.941,2.014,4.279,3.644,6.383,5.512
		C1375.72,232.865,1376.026,233.601,1376.462,234.255z"/>
	<path fill="#F9EF69" d="M1123.148,118.517c-3.625,0.844-7.127,1.467-10.709,1.201c-3.125-0.232-4.534-1.999-3.55-4.935
		c1.125-3.356,2.579-6.63,4.153-9.807c10.924-22.02,23.75-42.915,37.501-63.26c0.734-1.085,1.485-2.171,2.348-3.155
		c1.249-1.431,3.354-1.528,4.369,0.048c1.609,2.502,3.076,5.144,4.185,7.895c0.397,0.989-0.185,2.576-0.719,3.701
		c-1.845,3.888-3.721,7.775-5.847,11.512c-4.076,7.159-8.313,14.227-12.518,21.312c-6.212,10.473-12.325,20.997-17.324,32.128
		C1124.512,116.331,1123.776,117.414,1123.148,118.517z"/>
	<path fill="#F9EF69" d="M1325.994,381.918c1.729-3.531,3.17-6.773,4.905-9.85c0.589-1.047,1.797-1.959,2.934-2.443
		c2.57-1.099,5.228-2.05,7.925-2.782c8.126-2.202,16.297-4.243,24.434-6.405c2.547-0.678,4.739-0.46,6.71,1.513
		c1.717,1.718,3.694,3.177,5.433,4.876c2.191,2.146,2.276,4.782,0.004,6.877c-1.334,1.229-3.039,2.285-4.763,2.816
		c-5.538,1.707-11.11,3.373-16.769,4.606c-6.023,1.313-12.15,2.169-18.25,3.112c-2.213,0.342-4.479,0.326-6.713,0.521
		C1329.574,384.957,1327.934,383.915,1325.994,381.918z"/>
	<path fill="#F9EF69" d="M1026.306,34.436c3.671,1.995,5.584,5.277,7.687,8.285c0.638,0.912,0.452,2.539,0.335,3.81
		c-0.271,2.971-0.765,5.923-1.105,8.89c-0.445,3.896-0.901,7.793-1.224,11.699c-0.165,2.028-0.951,3.539-2.666,4.636
		c-1.572,1.005-3.064,2.131-4.631,3.15c-0.617,0.401-1.3,0.756-2.004,0.96c-2.562,0.74-4.952-0.841-5.279-3.486
		c-0.115-0.922-0.073-1.865-0.082-2.799c-0.122-9.983,1.673-19.672,4.416-29.226C1022.445,37.928,1023.541,35.868,1026.306,34.436z"
		/>
	<path fill="#F9EF69" d="M40.921,37.165c3.745-1.433,7.487-0.812,11.144-0.317c1.093,0.147,2.137,1.432,2.995,2.383
		c4.269,4.737,8.57,9.45,12.671,14.33c12.426,14.792,24.613,29.786,37.173,44.461c17.314,20.229,34.132,40.909,52.581,60.143
		c11.684,12.181,23.683,24.062,35.512,36.105c3.416,3.478,6.709,7.075,10.109,10.568c1.881,1.931,2.437,4.128,1.738,6.701
		c-0.392,1.447-0.617,2.95-1.125,4.353c-0.786,2.169-2.796,3.224-4.963,2.346c-2.233-0.905-4.479-2-6.387-3.449
		c-4.331-3.284-8.634-6.641-12.635-10.311c-14.248-13.069-27.837-26.819-40.805-41.146c-11.579-12.792-22.881-25.846-33.991-39.049
		c-12.317-14.638-24.421-29.462-36.34-44.426c-7.941-9.971-15.43-20.301-23.034-30.537c-1.554-2.092-2.679-4.499-4.067-6.718
		C40.413,40.879,40.358,39.121,40.921,37.165z"/>
	<path fill="#F9EF69" d="M139.927,270.848c0.425,5.318-1.828,7.301-7.032,5.868c-3.058-0.843-6.088-1.938-8.955-3.29
		c-14.081-6.634-27.994-13.612-41.578-21.208c-12.275-6.866-24.634-13.615-36.071-21.872c-1.674-1.209-3.455-2.299-4.988-3.667
		c-2.904-2.588-2.164-6.688,1.54-7.411c3.178-0.62,6.419-1.331,9.8,0.479c8.256,4.425,16.811,8.291,25.112,12.637
		c17.447,9.134,34.944,18.16,52.826,26.422c1.871,0.864,3.658,1.906,5.505,2.823c2.433,1.207,3.643,3.106,3.59,5.851
		C139.654,268.6,139.837,269.725,139.927,270.848z"/>
	<path fill="#F9EF69" d="M217.67,39.74c4.096,1.744,8.537,2.149,10.938,6.491c5.798,10.481,11.82,20.84,17.647,31.306
		c8.102,14.552,16.114,29.153,24.145,43.744c1.082,1.967,2.073,3.986,3.05,6.008c0.86,1.783,0.997,3.596-0.055,5.375
		c-1.142,1.932-2.175,3.942-3.466,5.77c-1.439,2.035-3.377,2.392-5.337,0.854c-1.435-1.125-2.784-2.546-3.693-4.112
		c-3.29-5.66-6.417-11.417-9.535-17.177c-4.364-8.059-8.741-16.111-12.975-24.237c-6.309-12.111-12.566-24.249-18.687-36.454
		c-1.67-3.329-2.817-6.929-4.128-10.433c-0.67-1.791-0.961-3.694,0.073-5.43C216.064,40.744,216.956,40.321,217.67,39.74z"/>
	<path fill="#F9EF69" d="M33.823,354.347c3.304-1.836,6.267-3.819,9.501-5.137c1.568-0.639,3.687-0.259,5.485,0.058
		c5.698,1.007,11.347,2.291,17.045,3.295c4.227,0.742,8.505,1.182,12.75,1.82c2.769,0.416,5.538,0.867,8.275,1.451
		c4.662,0.998,6.558,4.676,7.817,8.694c0.731,2.333-0.518,4.377-2.649,5.6c-2.262,1.298-4.669,1.234-7.097,0.898
		c-7.025-0.975-14.078-1.812-21.056-3.059c-9.018-1.612-17.924-3.723-26.204-7.858C35.068,358.8,35.064,358.811,33.823,354.347z"/>
	<path fill="#F9EF69" d="M335.78,37.865c1.962,0.713,4.802,1.625,7.523,2.81c0.715,0.312,1.161,1.419,1.563,2.243
		c1.231,2.525,2.394,5.085,3.555,7.643c2.634,5.797,5.195,11.629,7.905,17.392c0.955,2.034,1.161,3.886-0.024,5.86
		c-1.154,1.924-2.101,3.985-3.363,5.833c-1.283,1.879-2.867,2.04-4.9,0.944c-1.735-0.936-2.877-2.37-3.68-4.11
		c-1.569-3.4-3.294-6.742-4.634-10.232c-2.281-5.941-4.47-11.929-6.375-17.998c-0.767-2.442-0.817-5.144-0.933-7.74
		C332.354,39.02,333.614,37.918,335.78,37.865z"/>
	<path fill="#F9EF69" d="M42.108,1375.151c-0.964-3.869,0.891-6.882,3.458-9.507c7.074-7.235,13.912-14.748,21.417-21.513
		c25.759-23.226,51.692-46.258,77.703-69.201c14.334-12.644,28.987-24.93,43.427-37.457c4.382-3.801,8.552-7.848,12.786-11.818
		c1.18-1.106,2.494-1.681,4.082-1.356c3.485,0.71,6.989,1.37,10.43,2.26c2.834,0.733,3.874,2.854,2.845,5.646
		c-1.052,2.862-2.855,5.277-5.141,7.29c-7.18,6.317-14.352,12.645-21.593,18.895c-6.813,5.88-13.742,11.617-20.562,17.487
		c-10.089,8.686-20.159,17.394-30.176,26.164c-11.148,9.755-22.198,19.626-33.346,29.384
		c-17.636,15.437-35.311,30.831-52.999,46.213c-1.69,1.47-3.532,2.786-5.406,4.017c-0.905,0.594-2.023,0.972-3.096,1.18
		c-1.949,0.381-3.257-0.603-3.667-2.542c-0.078-0.365-0.147-0.742-0.153-1.113C42.096,1377.863,42.108,1376.55,42.108,1375.151z"/>
	<path fill="#F9EF69" d="M287.323,1282.363c-0.635,3.159-1.093,5.938-1.756,8.664c-5.708,23.499-12.713,46.609-21.009,69.322
		c-1.67,4.571-3.606,9.045-5.295,13.608c-0.836,2.267-2.099,3.863-4.504,4.583c-2.148,0.642-4.215,1.554-6.323,2.331
		c-0.702,0.259-1.405,0.545-2.132,0.694c-3.419,0.701-5.744-0.973-5.478-4.401c0.317-4.092,1.054-8.162,1.796-12.208
		c0.299-1.635,1.003-3.218,1.671-4.762c7.005-16.188,11.816-33.131,17.233-49.87c3.226-9.965,6.709-19.854,10.162-29.746
		c0.737-2.111,1.741-4.151,2.824-6.113c0.514-0.929,1.404-1.734,2.294-2.354c1.462-1.013,2.844-0.859,4.027,0.456
		c1.876,2.089,3.742,4.204,5.375,6.479C286.916,1280.03,287.031,1281.438,287.323,1282.363z"/>
	<path fill="#F9EF69" d="M103.142,1158.648c15.172-0.261,30.345-0.521,45.519-0.779c1.312-0.024,2.627,0.012,3.936-0.072
		c1.848-0.117,3.317,0.532,4.317,2.073c1.631,2.513,3.356,4.982,4.755,7.622c1.534,2.895,0.62,5.059-2.381,6.323
		c-0.851,0.357-1.779,0.68-2.688,0.728c-3.73,0.191-7.468,0.362-11.202,0.375c-4.121,0.015-8.243-0.259-12.362-0.223
		c-11.984,0.11-23.969,0.488-35.952,0.43c-14.423-0.069-28.846-0.434-43.264-0.783c-2.794-0.068-5.571-0.696-8.362-0.999
		c-1.767-0.192-3.17-1.045-4.495-2.131c-1.718-1.404-2.062-3.859-0.391-5.356c4.361-3.898,8.874-7.119,15.35-6.998
		c15.735,0.299,31.481,0.097,47.223,0.097C103.142,1158.854,103.142,1158.752,103.142,1158.648z"/>
	<path fill="#F9EF69" d="M63.102,1034.02c4.316,0,8.632,0.034,12.948-0.012c2.692-0.029,4.659,0.959,5.937,3.435
		c0.943,1.827,2.299,3.442,3.209,5.28c1.785,3.605,0.217,6.21-3.868,6.681c-0.373,0.042-0.75,0.063-1.124,0.055
		c-8.811-0.258-17.621-0.495-26.43-0.788c-3.188-0.105-6.372-0.32-9.556-0.521c-2.193-0.141-4.199-0.869-4.889-3.12
		c-0.737-2.409,0.204-4.344,2.391-5.73c0.924-0.584,1.858-1.375,2.406-2.297c1.796-3.026,4.529-3.563,7.722-3.459
		c3.747,0.124,7.503,0.03,11.253,0.03C63.102,1033.721,63.102,1033.87,63.102,1034.02z"/>
	<path fill="#F9EF69" d="M384.58,1358.175c-0.44,4.272-0.921,8.543-1.304,12.823c-0.163,1.826-0.98,3.119-2.475,4.145
		c-2.157,1.482-4.204,3.125-6.363,4.604c-3.7,2.53-6.666,1.46-7.286-2.843c-0.503-3.498-0.869-7.1-0.618-10.606
		c0.508-7.083,1.428-14.136,2.293-21.187c0.202-1.645,0.656-3.326,1.354-4.823c1.158-2.474,3.283-2.896,5.543-1.361
		c0.155,0.105,0.311,0.211,0.453,0.33C384.269,1346.054,385.37,1344.472,384.58,1358.175z"/>
	<path fill="#F7941E" d="M688.117,678.508c4.057,1.189,8.189,0.59,12.279,0.258c1.185-0.096,2.457-0.867,3.407-1.666
		c1.131-0.946,2.23-2.125,2.862-3.436c1.567-3.252,4.328-5.029,7.291-6.716c9.036-5.148,14.055-13.314,16.651-23.055
		c0.854-3.194,0.757-6.644,1.131-10.331c1.019,0.072,2.136-0.058,3.112,0.256c4.273,1.372,8.523,2.822,12.745,4.343
		c2.812,1.013,5.525,2.311,8.354,3.276c4.646,1.581,9.03,3.634,13.013,6.522c1.322,0.958,2.477,2.285,4.514,1.388
		c0.434-0.19,1.59,0.805,2.17,1.469c9.854,11.297,17.72,23.687,21.058,38.557c0.323,1.444,0.994,2.812,1.54,4.204
		c0.951,2.434,2.225,4.788,2.806,7.306c0.465,2.021,1.455,3.344,3.354,4.512c-2.479,8.397-0.555,17.092-1.876,25.625
		c-0.891,5.734-1.264,11.556-1.765,17.345c-0.291,3.359-0.42,6.733-0.53,10.105c-0.087,2.675-0.291,5.202-2.628,7.095
		c-0.821,0.662-1.295,1.815-1.793,2.812c-4.619,9.221-11.316,16.606-19.443,22.904c-16.078,12.452-34.296,19.614-54.225,22.958
		c-9.724,1.63-19.502,1.556-29.174,0.659c-11.765-1.09-23.084-4.508-33.974-9.218c-9.176-3.972-17.47-9.248-25.083-15.761
		c-6.473-5.536-10.63-12.551-14.016-20.114c-5.633-12.578-8.875-25.804-10.463-39.487c-1.125-9.701-2.029-19.41-1.864-29.175
		c0.119-7.115,0.795-14.168,2.015-21.233c1.064-6.163,3.45-11.271,7.536-15.828c1.738-1.938,3.39-4.03,4.681-6.284
		c2.12-3.699,5.143-6.396,8.535-8.811c5.067-3.602,10.487-6.56,16.229-8.921c5.192-2.136,10.416-4.2,15.09-6.083
		c3.112,0.805,5.597,1.586,8.138,2.078c12.819,2.479,19.232,11.416,23.075,22.88c0.521,1.553,0.439,3.342,0.453,5.024
		c0.021,2.319-0.659,4.421-2.353,6.135c-1.051,1.066-2.049,2.193-3.011,3.342C686.535,675.138,686.604,676.833,688.117,678.508z
		 M765.182,747.058c-4.239,2.335-7.744,4.514-11.451,6.251c-6.089,2.85-12.188,5.752-18.511,7.998
		c-5.966,2.122-12.172,3.652-18.364,5.017c-4.73,1.041-9.6,1.506-14.426,2.047c-2.779,0.313-5.602,0.275-8.405,0.385
		c-11.003,0.431-21.057-2.609-30.402-8.285c-4.887-2.966-8.854-6.959-12.275-11.438c-1.945-2.547-4.496-3.893-7.272-5.025
		c-2.101-0.854-3.774,0.427-3.522,2.737c0.159,1.47,0.482,2.978,1.052,4.335c5.568,13.261,15.101,22.524,28.381,27.995
		c9.14,3.764,18.719,5.217,28.522,5.476c12.662,0.335,24.976-1.851,37.123-5.213c6.876-1.905,13.521-4.337,19.707-7.984
		c4.795-2.825,8.354-6.867,11.584-11.25c2.073-2.812,2.955-6.038,2.604-9.549c-0.054-0.534-0.282-1.05-0.479-1.739
		C767.74,748.22,766.393,747.607,765.182,747.058z M687.975,728.751c1.32-2.363,2.239-3.979,3.134-5.607
		c3.16-5.763,5.812-11.712,7.773-18.029c1.24-3.997,0.387-7.351-1.333-10.769c-0.789-1.562-2.595-1.878-3.67-0.516
		c-1.388,1.751-2.658,3.62-3.764,5.559c-3.524,6.173-6.576,12.671-11.167,18.144c-3.905,4.655-5.554,10.069-6.716,15.819
		c-0.379,1.87,0.013,3.363,1.179,4.675c0.989,1.108,2.064,2.208,3.289,3.038c6.746,4.574,14.377,6.311,22.365,6.084
		c8.514-0.24,16.469-3.124,24.377-6.07c6.554-2.44,9.399-7.694,10.872-13.975c0.482-2.069-0.232-4.004-2.102-5.896
		c-2.091,1.905-4.726,1.973-7.226,2.569c-2.173,0.517-4.285,1.313-6.39,2.086c-1.931,0.709-3.783,1.645-5.725,2.317
		C704.899,730.94,696.854,730.906,687.975,728.751z M764.354,685.524c1.375-3.221-0.241-5.188-1.979-6.837
		c-2.841-2.692-5.854-5.213-8.932-7.635c-2.421-1.903-5.33-2.624-8.402-2.63c-3.951-0.009-7.776,0.677-11.56,1.829
		c-5.293,1.614-8.237,5.319-9.974,10.201c2.367,2.426,2.371,2.466,3.733,2.364c0.929-0.07,1.841-0.312,2.77-0.406
		c6.576-0.68,12.827-0.463,18.935,3.052C753.838,688.278,759.357,687.104,764.354,685.524z M660.955,667.479
		c-4.917-0.904-8.896,1.101-12.354,4.231c-2.345,2.124-4.526,4.478-6.495,6.954c-2.991,3.764-3.23,8.28-2.803,12.848
		c0.124,1.326,1.397,2.404,2.761,2.303c1.08-0.081,2.249-0.324,3.171-0.854c1.614-0.929,3.12-2.075,4.588-3.231
		c3.822-3.011,7.541-6.104,11.92-8.391c4.034-2.105,6.771-5.866,9.817-9.157c1.209-1.307,0.578-2.972-1.134-3.498
		c-0.713-0.218-1.457-0.383-2.197-0.464C665.807,667.945,663.38,667.72,660.955,667.479z M663.577,691.578
		c-5.219-1.222-5.821-1.165-8.173,2.521c-2.098,3.285-3.885,6.773-5.719,10.224c-0.914,1.722-0.832,3.612-0.314,5.447
		c0.748,2.641,2.717,4.062,5.459,3.709c2.573-0.334,5.155-0.796,7.65-1.494c4.086-1.148,6.774-6.387,5.311-10.293
		C666.558,698.396,665.093,695.189,663.577,691.578z M743.752,712.419c2.126-0.27,4.742-0.498,7.318-0.958
		c2.089-0.372,3.988-2.818,3.694-4.984c-0.426-3.138-0.909-6.323-1.896-9.316c-1.3-3.941-5.248-4.852-7.883-1.772
		c-2.666,3.111-4.914,6.598-7.136,10.053c-0.508,0.788-0.426,2.197-0.151,3.194C738.367,711.079,740.485,712.396,743.752,712.419z"
		/>
	<path fill="#F7941E" d="M813.73,701.062c8.191-1.193,13.062,2.403,16.74,7.731c4.456,6.448,6.647,13.742,6.746,21.636
		c0.044,3.742-1.623,6.887-3.359,9.987c-3.789,6.771-9,11.823-17.271,13.815c-0.019-9.175,1.492-18.008,0.795-26.918
		C816.698,718.602,815.848,709.925,813.73,701.062z"/>
	<path fill="#F7941E" d="M600.238,749.347c-7.475-2.263-12.821-5.782-17.378-10.047c-1.246-1.167-2.316-2.448-3.317-3.743
		c-2.03-2.632-3.215-5.403-3.061-8.535c0.555-11.113,5.782-20.709,16.215-28.675c0.525-0.398,1.116-0.759,1.744-1.062
		c0.399-0.189,0.921-0.237,1.413-0.357c1.923,0.525,1.458,1.803,1.45,2.84c-0.042,5.802-0.144,11.603-0.269,17.4
		c-0.2,9.386,0.863,18.698,2.756,27.968C600.046,746.376,600.065,747.646,600.238,749.347z"/>
	<path d="M765.182,747.058c1.211,0.551,2.56,1.162,3.862,1.757c0.197,0.691,0.427,1.205,0.479,1.739
		c0.353,3.511-0.529,6.737-2.604,9.549c-3.23,4.383-6.789,8.425-11.584,11.25c-6.186,3.646-12.831,6.079-19.707,7.984
		c-12.146,3.362-24.461,5.55-37.123,5.215c-9.804-0.261-19.383-1.713-28.522-5.477c-13.278-5.469-22.812-14.735-28.38-27.996
		c-0.57-1.357-0.894-2.865-1.053-4.335c-0.252-2.312,1.422-3.593,3.522-2.736c2.776,1.133,5.327,2.479,7.272,5.024
		c3.422,4.479,7.389,8.472,12.275,11.438c9.344,5.677,19.398,8.715,30.402,8.285c2.804-0.109,5.625-0.072,8.405-0.385
		c4.827-0.541,9.695-1.007,14.425-2.048c6.193-1.363,12.399-2.896,18.365-5.016c6.321-2.247,12.422-5.15,18.51-7.999
		C757.438,751.57,760.941,749.393,765.182,747.058z"/>
	<path d="M687.975,728.751c8.881,2.155,16.926,2.189,24.898-0.572c1.941-0.673,3.793-1.607,5.725-2.318
		c2.104-0.771,4.217-1.568,6.39-2.086c2.5-0.598,5.135-0.662,7.224-2.568c1.869,1.894,2.585,3.828,2.104,5.896
		c-1.474,6.28-4.319,11.533-10.873,13.975c-7.905,2.946-15.863,5.83-24.377,6.069c-7.987,0.227-15.618-1.508-22.364-6.085
		c-1.224-0.828-2.299-1.928-3.288-3.036c-1.167-1.312-1.559-2.807-1.18-4.676c1.163-5.749,2.811-11.165,6.716-15.819
		c4.591-5.472,7.642-11.97,11.167-18.143c1.105-1.938,2.376-3.808,3.764-5.559c1.075-1.362,2.881-1.048,3.67,0.516
		c1.719,3.418,2.572,6.771,1.333,10.769c-1.961,6.316-4.613,12.267-7.774,18.029C690.214,724.771,689.295,726.388,687.975,728.751z"
		/>
	<path d="M764.354,685.524c-4.995,1.579-10.516,2.755-15.409-0.062c-6.106-3.514-12.356-3.731-18.935-3.052
		c-0.929,0.095-1.841,0.336-2.77,0.406c-1.362,0.102-1.366,0.062-3.733-2.364c1.735-4.881,4.681-8.587,9.972-10.201
		c3.784-1.151,7.608-1.837,11.562-1.829c3.072,0.007,5.981,0.728,8.401,2.63c3.076,2.42,6.092,4.942,8.933,7.634
		C764.111,680.337,765.729,682.304,764.354,685.524z"/>
	<path d="M660.955,667.479c2.425,0.242,4.853,0.467,7.273,0.74c0.74,0.082,1.483,0.248,2.197,0.464
		c1.712,0.526,2.344,2.191,1.134,3.498c-3.047,3.292-5.783,7.052-9.819,9.157c-4.378,2.288-8.097,5.38-11.918,8.391
		c-1.469,1.156-2.974,2.303-4.588,3.231c-0.924,0.528-2.093,0.771-3.172,0.854c-1.361,0.102-2.636-0.977-2.76-2.303
		c-0.428-4.57-0.188-9.084,2.802-12.848c1.97-2.477,4.151-4.83,6.496-6.954C652.059,668.578,656.038,666.572,660.955,667.479z"/>
	<path d="M663.577,691.578c1.516,3.611,2.98,6.82,4.214,10.113c1.464,3.905-1.225,9.145-5.311,10.293
		c-2.494,0.7-5.076,1.16-7.65,1.494c-2.742,0.354-4.711-1.068-5.459-3.709c-0.518-1.834-0.599-3.726,0.314-5.447
		c1.834-3.447,3.619-6.938,5.719-10.224C657.756,690.414,658.358,690.356,663.577,691.578z"/>
	<path d="M743.752,712.419c-3.266-0.021-5.385-1.34-6.053-3.784c-0.273-0.997-0.354-2.406,0.152-3.194
		c2.223-3.455,4.47-6.941,7.135-10.053c2.635-3.079,6.582-2.171,7.883,1.772c0.988,2.993,1.472,6.179,1.898,9.316
		c0.293,2.166-1.607,4.612-3.695,4.984C748.494,711.921,745.877,712.148,743.752,712.419z"/>
	<path d="M845.316,717.001c-3.01-20.829-20.795-47.852-45.533-37.776c-0.192,0.077-0.372,0.195-0.548,0.327
		c-0.277-0.79-0.562-1.577-0.834-2.368c0.268-1.52,0.383-2.939,0.445-3.724c1.738-21.361-5.68-40.78-23.008-53.62
		c-15.823-11.723-36.458-17.588-55.677-20.503c-17.936-2.72-36.652-3.093-54.254,1.708c-13.199,3.6-24.461,10.197-34.425,19.492
		c-10.689,9.974-21.146,22-27.797,35.037c-0.951,1.868-1.64,15.947,2.434,13.276c0.292-0.19,0.568-0.404,0.853-0.604
		c-0.424,2.997-0.893,5.984-1.252,8.987c-0.431,3.604-0.856,7.207-1.255,10.811c-1.239-2.836-3.388-5.113-6.599-6.005
		c-6.688-1.854-12.378,2.758-16.236,7.587c-9.4,11.77-10.407,31.054-8.618,45.303c1.224,9.742,13.43,36.589,26.815,25.614
		c1.988-1.631,3.428-3.76,4.495-6.144c4.474,23.376,15.417,44.993,36.071,58.709c11.964,7.941,26.034,11.248,40.025,13.388
		c6.907,1.057,14.331,0.707,21.311,0.856c7.48,0.163,15.002-0.392,22.418-1.356c24.558-3.195,48.323-12.696,64.533-31.978
		c6.088-7.237,11.067-15.939,14.802-25.249c0.179,0.192,0.37,0.366,0.587,0.513c0.154,0.107,0.313,0.214,0.475,0.316
		c0.689,0.621,1.25,0.742,2.36,0.308c0.427-0.167,0.809-0.427,1.169-0.72c0.658,1.041,1.557,1.659,2.788,1.531
		C837.908,767.89,848.845,741.425,845.316,717.001z M592.988,741.07c-4.699-0.04-9.223-6.71-10.912-10.352
		c-0.965-2.082-0.885-3.388-0.881-7.144c0.001-1.705,0.984-6.532,2.124-9.613c1.341-3.629,3.622-6.675,6.781-8.887
		c1.424-0.998,3.154-1.671,4.818-2.121c0.562-0.152,1.116-0.261,1.672-0.371c0.138,0.481,0.325,1.068,0.591,1.644
		c0.006,0.131,0.01,0.262,0.015,0.395c-0.112,1.27-0.167,2.558-0.165,3.862c-1.082,9.536-1.726,20.316,0.931,29.336
		C597.18,739.816,595.62,741.093,592.988,741.07z M799.611,744.279c-6.707,24.754-21.989,45.762-45.893,55.982
		c-25.992,11.12-58.424,12.172-84.681,1.65c-25.254-10.12-48.291-28.146-54.798-55.653c-3.583-15.146-1.867-32.156-0.745-48.44
		c0.67-9.727,0.986-19.413,0.886-29.162c-0.006-0.567-0.006-1.149-0.004-1.743c14.892-6.079,25.26-19.904,40.979-24.355
		c9.391-2.658,21.352-1.5,28.759,5.296c1.081,0.989,1.708,2.439,2.227,3.771c0.02,0.047,0.03,0.076,0.046,0.117
		c-0.006,0.146-0.006,0.336,0.007,0.607c-0.002,0.8,0.003,1.232,0.014,1.312c-0.056,1.115-0.143,2.227-0.235,3.34
		c-0.211,2.531-0.543,4.884-0.8,6.629c-0.708,4.816-1.838,17.587,4.667,19.359c12.103,3.295,24.83-4.376,33.471-12.214
		c7.733-7.014,13.51-16.135,16.242-26.146c9.954,3.446,19.569,7.622,28.736,12.866c5.041,2.884,9.827,6.198,14.219,9.998
		c1.357,1.174,2.6,2.425,3.758,3.767c1.423,12.494,5.95,24.599,10.12,36.427C800.971,720.13,803.118,731.334,799.611,744.279z
		 M809.122,711.452c-0.094-0.44-0.176-0.883-0.276-1.322c0.184,0.385,0.365,0.764,0.528,1.175c0.138,0.35,0.25,0.704,0.367,1.06
		C809.541,712.055,809.34,711.747,809.122,711.452z M837.088,729.613c0.12-0.997-0.64,2.432-0.787,2.852
		c-0.639,1.82-1.494,3.444-2.521,5.068c-3.909,6.192-9.902,9.591-16.574,11.347c1.223-8.83,1.904-17.72,1.358-26.646
		c-0.321-5.289-1.168-13.735-3.767-20.912c3.732,0.52,7.34,1.739,11.102,4.395c6.096,4.304,9.686,10.784,11.072,16.604
		c-0.225-0.599,0.317,3.776,0.355,3.156c0.02,0.516,0.02,1.027,0.02,1.541C837.305,726.312,837.131,729.242,837.088,729.613z"/>
	<path d="M527.532,1261.167c-13.082,5.969-29.237,2.154-42.482-0.854c-4.093-0.931-8.376-1.909-12.642-2.512
		c3.338-7.521,6.18-15.328,8.979-23.119c11.866,1.654,23.881,1.621,34.713-3.509c4.275-2.024,3.848-18.932-1.488-19.401
		c-8.247-0.729-16.503,0.163-24.745,0.648c3.609-8.274,7.979-16.277,13.871-23.087c3.551-4.104,7.507-8.066,11.696-11.515
		c4.443-3.656,8.592-5.853,10.941,0.98c1.809,5.257,3.68-3.862,3.382-5.655c-0.97-5.86-2.176-12.509-7.401-16.121
		c-4.309-2.978-8.577-1.199-12.489,1.466c-10.79,7.354-18.562,18.517-24.31,30.035c-3.875,7.764-7.021,16.107-10.163,24.51
		c-5.701,0.196-11.413,0.296-17.085,0.058c-4.636-0.192-4.375,16.099,0.42,17.14c2.979,0.65,6.031,1.336,9.131,1.992
		c-4.758,10.964-10.486,21.309-18.92,29.774c-1.508,1.139-2.935,2.51-4.262,4.165c-3.152,3.932-3,11.003-2.337,15.638
		c0.27,1.894,3.222,13.433,7.515,9.453c1.157-1.073,2.267-2.176,3.341-3.3c9.294-7.308,26.583-1.228,36.427,0.975
		c7.475,1.668,15.11,3.234,22.808,2.842c8.579-0.438,14.415-5.135,18.931-12.08C533.416,1276.521,534.612,1257.936,527.532,1261.167
		z"/>
	<path d="M606.124,1264.645c-4.686,0.056-9.202,1.416-13.821,2.06c-4.756,0.662-9.67,0.164-14.411-0.354
		c-2.206-0.239-4.406-0.528-6.604-0.802c2.935-4.962,5.679-10.016,8.261-15.058c8.361-16.323,15.595-34.269,16.505-52.791
		c0.727-14.742-2.262-38.551-21.626-38.553c-7.007,0-13.451,4.016-17.682,9.309c-4.917,6.154-6.135,18.182-1.936,24.892
		c2.026,3.238,3.476-2.85,3.564-4.027c0.041-0.546,0.097-0.977,0.15-1.298c0.239-0.604,0.58-1.045,0.964-1.613
		c1.147-1.697,3.707-3.019,5.562-3.719c4.832-1.819,10.767-1.441,15.361,0.81c2.55,1.248,4.329,3.177,5.781,5.555
		c0.354,0.58,0.54,0.866,0.633,1.004c-0.074-0.072-0.123-0.026,0.19,0.775c0.01,0.096,0.018,0.192,0.026,0.291
		c-0.095,0.387-0.208,2.945-0.051,2.065c-0.334,2.425-0.841,4.858-1.449,7.097c-3.531,13.033-9.72,25.247-16.506,36.853
		c-5.967,10.202-12.644,20.453-20.786,29.077c-3.297,3.488-3.911,8.432-3.796,13.09c0.057,2.331,1.149,14.406,5.936,13.337
		c18.932-4.238,44.575,11.08,58.585-7.552C611.516,1281.715,613.017,1264.561,606.124,1264.645z"/>
	<path d="M702.888,1185.056c-4.072-9.433-12.799-16.932-22.77-16.62c-6.945-9.488-18.653-0.789-25.224,7.09
		c-12.169,14.597-20.617,32.47-26.425,50.468c-5.886,18.247-10.446,42.131-0.187,59.665c6.971,11.913,19.69,16.117,32.197,11.174
		c11.11-4.389,19.892-14.761,26.541-24.29c8.521-12.208,14.685-26.271,18.069-40.75
		C708.604,1216.755,709.111,1199.467,702.888,1185.056z M694.17,1220.821c-1.705,6.149-5.555,14.653-8.14,19.326
		c-6.742,12.188-15.295,23.677-28.015,29.721c-3.752,1.783-9.773,2.865-14.523,1.085c-2.627-0.986-4.941-2.659-7.007-4.527
		c0.05,0.046-1.871-2.131-2.5-2.942c-0.284-0.364-0.543-0.743-0.795-1.126c0-0.004,0-0.012,0-0.017
		c0.37,0.493,0.172-0.101-0.053-0.571c-0.065-0.489-0.175-1.056-0.235-1.064c0.027-0.642,0.069-2.046,0.104-2.488
		c0.051-0.638,0.133-1.271,0.207-1.906c-0.003,0.27,0.409-2.533,0.485-2.951c0.499-2.746,1.142-5.468,1.827-8.172
		c-0.036,0.211,0.681-2.383,0.633-2.22c0.439-1.509,0.919-3.007,1.403-4.5c0.986-3.044,2.093-6.049,3.245-9.032
		c2.193-5.677,4.809-11.152,7.593-16.561c4.484-8.711,9.765-17.561,16.799-24.476c1.667-1.64,3.419-3.078,5.277-4.062
		c0.323,3.118,1.162,6.205,3.15,6.924c6.295,2.282,13.605,3.886,18.797,8.32c0.285,0.243,0.869,0.843,1.828,2.122
		c0.199,0.264,0.384,0.533,0.562,0.81c0.12,0.21,0.536,0.91,0.652,1.16c0.131,0.272,0.248,0.553,0.362,0.832
		c0.118,0.335,0.274,0.789,0.345,1.036c0.031,0.123,0.071,0.282,0.109,0.453c0.01,0.07,0.021,0.142,0.031,0.213
		c-0.039-0.071,0.026,1.128,0.079,2.235c-0.069,0.808-0.181,2.975-0.256,3.628c-0.011,0.099-0.019,0.164-0.024,0.24
		c-0.136,0.812-0.293,1.623-0.456,2.431C695.25,1216.787,694.729,1218.811,694.17,1220.821z"/>
	<path d="M776.625,1175.652c-4.666-4.605-9.926-8.015-16.407-9.367c-2.469-0.516-4.682-0.182-6.637,0.701
		c-0.215-0.126-0.44-0.219-0.679-0.265c-12.799-2.372-23.139,14.186-27.631,23.821c-7.469,16.016-10.049,34.098-10.271,51.627
		c-0.195,15.244,1.637,33.678,11.224,46.225c8.526,11.156,21.348,8.823,31.794,1.716c23.372-15.901,33.188-46.559,33.184-73.657
		C791.199,1201.73,787.33,1186.222,776.625,1175.652z M759.242,1260.241c-5.031,4.461-10.901,8.693-17.445,9.407
		c-2.35,0.258-4.709-0.214-5.801-0.659c-1.018-0.416-1.975-1.001-2.885-1.611c-0.467-0.313-0.898-0.677-1.33-1.036
		c-0.151-0.126-0.215-0.171-0.251-0.189c-0.077-0.1-0.218-0.264-0.496-0.575c-0.821-0.926-1.53-1.953-2.203-2.991
		c-0.082-0.129-0.279-0.475-0.439-0.758c-0.229-0.456-0.454-0.911-0.669-1.375c-0.518-1.113-0.951-2.268-1.362-3.427
		c0.356,0.892-0.862-3.212-1.056-4.036c-0.051-0.219-0.153-0.733-0.236-1.142c-0.088-0.536-0.181-1.07-0.264-1.606
		c-0.211-1.381-0.363-2.771-0.499-4.158c0.107,0.807-0.146-3.346-0.164-4.136c-0.021-0.929-0.018-1.856-0.014-2.785
		c0.001-0.199,0-0.327,0-0.423c0.012-0.231,0.029-0.57,0.053-1.1c0.339-7.522,1.266-13.724,3.112-20.426
		c2.229-8.078,5.279-15.589,10.189-22.402c1.773-2.459,3.854-4.42,6.116-6.128c0.122,4.311,1.037,8.353,3.886,8.071
		c2.6-0.254,4.492-1.737,6.922-2.503c2.537-0.799,5.275-0.442,7.822,0.079c5.854,1.203,11.183,6.654,14.604,11.222
		c1.238,1.649,1.933,3.4,2.409,5.043c0.525,1.804,0.611,3.104,0.665,4.612c0.133,3.575-0.864,10.074-2.452,15.213
		C773.961,1241.729,768.157,1252.335,759.242,1260.241z"/>
	<path d="M880.488,1209.371c-0.368-11.812-2.835-25.358-10.887-34.53c-6.287-7.165-18.664-13.42-27.427-7.149
		c-0.747,0.533-1.352,1.471-1.821,2.65c-11.862,1.283-21.477,17.777-26.033,26.561c-9.672,18.627-15.056,39.856-15.104,60.844
		c-0.039,16.412,4.498,37.077,23.338,40.018c14.67,2.29,27.602-9.167,35.997-19.731
		C873.534,1259.173,881.238,1233.289,880.488,1209.371z M869.529,1216.801c-0.317,1.964-0.709,3.915-1.149,5.852
		c-0.903,3.974-1.276,5.107-3.032,9.86c-1.429,3.872-3.238,7.94-4.796,10.87c-6.312,11.895-16.378,25.373-30.333,28.417
		c-5.999,1.312-12.574,0.404-17.348-3.606c-1.953-1.642-2.535-3.094-3.541-5.764c0.996,2.646-0.559-3.563-0.434-2.166
		c-0.06-0.426-0.116-0.854-0.164-1.279c0.198,1.682-0.107-1.924-0.123-2.502c-0.007-0.318-0.002-0.642-0.002-0.961
		c0.015,0.329,0.061-1.853,0.077-2.162c0.1-1.658,0.272-3.313,0.466-4.967c0.021-0.123,0.071-0.483,0.162-1.106
		c0.178-1.155,0.391-2.307,0.603-3.457c0.43-2.337,0.964-4.657,1.529-6.968c1.821-7.474,4.926-15.525,8.467-22.676
		c4.576-9.24,11.799-22.226,22.604-25.479c0.061,0.041,0.117,0.089,0.177,0.126c6.617,3.982,14.539,3.182,20.934,8.179
		c1.931,1.511,3.26,3.289,4.82,6.034c-1.213-2.132,0.989,3.16,0.66,1.783c0.134,0.473,0.263,0.947,0.387,1.422
		c0.06,0.227,0.106,0.416,0.149,0.571c0.013,0.084,0.024,0.18,0.046,0.304c0.062,0.396,0.115,0.795,0.164,1.192
		c0.041,0.444,0.09,1.018,0.104,1.313c0.025,0.622,0.021,1.246,0.021,1.87c-0.008,0.381-0.017,0.769-0.027,0.977
		C869.912,1213.167,869.52,1216.562,869.529,1216.801z"/>
</g>
</svg>
